<?xml version="1.0" encoding="utf-8" standalone="no"?>
<!DOCTYPE svg PUBLIC "-//W3C//DTD SVG 1.1//EN"
  "http://www.w3.org/Graphics/SVG/1.1/DTD/svg11.dtd">
<svg height="283.5pt" version="1.1" viewBox="0 0 504 283.5" width="504pt" xmlns="http://www.w3.org/2000/svg" xmlns:xlink="http://www.w3.org/1999/xlink">
 <metadata>
  <rdf:RDF xmlns:cc="http://creativecommons.org/ns#" xmlns:dc="http://purl.org/dc/elements/1.1/" xmlns:rdf="http://www.w3.org/1999/02/22-rdf-syntax-ns#">
   <cc:Work>
    <dc:type rdf:resource="http://purl.org/dc/dcmitype/StillImage"/>
    <dc:date>2022-04-11T20:24:39.565431</dc:date>
    <dc:format>image/svg+xml</dc:format>
    <dc:creator>
     <cc:Agent>
      <dc:title>Matplotlib v3.4.3, https://matplotlib.org/</dc:title>
     </cc:Agent>
    </dc:creator>
   </cc:Work>
  </rdf:RDF>
 </metadata>
 <defs>
  <style type="text/css">*{stroke-linecap:butt;stroke-linejoin:round;}</style>
 </defs>
 <g id="figure_1">
  <g id="patch_1">
   <path d="M 0 283.5 
L 504 283.5 
L 504 0 
L 0 0 
z
" style="fill:#ffffff;"/>
  </g>
  <g id="axes_1">
   <g id="patch_2">
    <path d="M 85.68 229.635 
L 504 229.635 
L 504 51.03 
L 85.68 51.03 
z
" style="fill:#ffffff;"/>
   </g>
   <g id="PolyCollection_1">
    <defs>
     <path d="M 107.163571 -55.017908 
L 107.163571 -53.865 
L 109.062174 -53.865 
L 110.960776 -53.865 
L 112.859378 -53.865 
L 114.757981 -53.865 
L 116.656583 -53.865 
L 118.555186 -53.865 
L 120.453788 -53.865 
L 122.352391 -53.865 
L 124.250993 -53.865 
L 126.149595 -53.865 
L 128.048198 -53.865 
L 129.9468 -53.865 
L 131.845403 -53.865 
L 133.744005 -53.865 
L 135.642608 -53.865 
L 137.54121 -53.865 
L 139.439812 -53.865 
L 141.338415 -53.865 
L 143.237017 -53.865 
L 145.13562 -53.865 
L 147.034222 -53.865 
L 148.932825 -53.865 
L 150.831427 -53.865 
L 152.730029 -53.865 
L 154.628632 -53.865 
L 156.527234 -53.865 
L 158.425837 -53.865 
L 160.324439 -53.865 
L 162.223042 -53.865 
L 164.121644 -53.865 
L 166.020246 -53.865 
L 167.918849 -53.865 
L 169.817451 -53.865 
L 171.716054 -53.865 
L 173.614656 -53.865 
L 175.513259 -53.865 
L 177.411861 -53.865 
L 179.310463 -53.865 
L 181.209066 -53.865 
L 183.107668 -53.865 
L 185.006271 -53.865 
L 186.904873 -53.865 
L 188.803476 -53.865 
L 190.702078 -53.865 
L 192.60068 -53.865 
L 194.499283 -53.865 
L 196.397885 -53.865 
L 198.296488 -53.865 
L 200.19509 -53.865 
L 202.093693 -53.865 
L 203.992295 -53.865 
L 205.890897 -53.865 
L 207.7895 -53.865 
L 209.688102 -53.865 
L 211.586705 -53.865 
L 213.485307 -53.865 
L 215.38391 -53.865 
L 217.282512 -53.865 
L 219.181114 -53.865 
L 221.079717 -53.865 
L 222.978319 -53.865 
L 224.876922 -53.865 
L 226.775524 -53.865 
L 228.674127 -53.865 
L 230.572729 -53.865 
L 232.471331 -53.865 
L 234.369934 -53.865 
L 236.268536 -53.865 
L 238.167139 -53.865 
L 240.065741 -53.865 
L 241.964344 -53.865 
L 243.862946 -53.865 
L 245.761548 -53.865 
L 247.660151 -53.865 
L 249.558753 -53.865 
L 251.457356 -53.865 
L 253.355958 -53.865 
L 255.254561 -53.865 
L 257.153163 -53.865 
L 259.051765 -53.865 
L 260.950368 -53.865 
L 262.84897 -53.865 
L 264.747573 -53.865 
L 266.646175 -53.865 
L 268.544778 -53.865 
L 270.44338 -53.865 
L 272.341982 -53.865 
L 274.240585 -53.865 
L 276.139187 -53.865 
L 278.03779 -53.865 
L 279.936392 -53.865 
L 281.834995 -53.865 
L 283.733597 -53.865 
L 285.632199 -53.865 
L 287.530802 -53.865 
L 289.429404 -53.865 
L 291.328007 -53.865 
L 293.226609 -53.865 
L 295.125212 -53.865 
L 297.023814 -53.865 
L 298.922416 -53.865 
L 300.821019 -53.865 
L 302.719621 -53.865 
L 304.618224 -53.865 
L 306.516826 -53.865 
L 308.415429 -53.865 
L 310.314031 -53.865 
L 312.212633 -53.865 
L 314.111236 -53.865 
L 316.009838 -53.865 
L 317.908441 -53.865 
L 319.807043 -53.865 
L 321.705646 -53.865 
L 323.604248 -53.865 
L 325.50285 -53.865 
L 327.401453 -53.865 
L 329.300055 -53.865 
L 331.198658 -53.865 
L 333.09726 -53.865 
L 334.995863 -53.865 
L 336.894465 -53.865 
L 338.793067 -53.865 
L 340.69167 -53.865 
L 342.590272 -53.865 
L 344.488875 -53.865 
L 346.387477 -53.865 
L 348.28608 -53.865 
L 350.184682 -53.865 
L 352.083284 -53.865 
L 353.981887 -53.865 
L 355.880489 -53.865 
L 357.779092 -53.865 
L 359.677694 -53.865 
L 361.576297 -53.865 
L 363.474899 -53.865 
L 365.373501 -53.865 
L 367.272104 -53.865 
L 369.170706 -53.865 
L 371.069309 -53.865 
L 372.967911 -53.865 
L 374.866514 -53.865 
L 376.765116 -53.865 
L 378.663718 -53.865 
L 380.562321 -53.865 
L 382.460923 -53.865 
L 384.359526 -53.865 
L 386.258128 -53.865 
L 388.156731 -53.865 
L 390.055333 -53.865 
L 391.953936 -53.865 
L 393.852538 -53.865 
L 395.75114 -53.865 
L 397.649743 -53.865 
L 399.548345 -53.865 
L 401.446948 -53.865 
L 403.34555 -53.865 
L 405.244153 -53.865 
L 407.142755 -53.865 
L 409.041357 -53.865 
L 410.93996 -53.865 
L 412.838562 -53.865 
L 414.737165 -53.865 
L 416.635767 -53.865 
L 418.53437 -53.865 
L 420.432972 -53.865 
L 422.331574 -53.865 
L 424.230177 -53.865 
L 426.128779 -53.865 
L 428.027382 -53.865 
L 429.925984 -53.865 
L 431.824587 -53.865 
L 433.723189 -53.865 
L 435.621791 -53.865 
L 437.520394 -53.865 
L 439.418996 -53.865 
L 441.317599 -53.865 
L 443.216201 -53.865 
L 445.114804 -53.865 
L 447.013406 -53.865 
L 448.912008 -53.865 
L 450.810611 -53.865 
L 452.709213 -53.865 
L 454.607816 -53.865 
L 456.506418 -53.865 
L 458.405021 -53.865 
L 460.303623 -53.865 
L 462.202225 -53.865 
L 464.100828 -53.865 
L 465.99943 -53.865 
L 467.898033 -53.865 
L 469.796635 -53.865 
L 471.695238 -53.865 
L 473.59384 -53.865 
L 475.492442 -53.865 
L 477.391045 -53.865 
L 479.289647 -53.865 
L 481.18825 -53.865 
L 483.086852 -53.865 
L 484.985455 -53.865 
L 484.985455 -54.043083 
L 484.985455 -54.043083 
L 483.086852 -54.173515 
L 481.18825 -54.380698 
L 479.289647 -54.696722 
L 477.391045 -55.159271 
L 475.492442 -55.808286 
L 473.59384 -56.680219 
L 471.695238 -57.800066 
L 469.796635 -59.172084 
L 467.898033 -60.77096 
L 465.99943 -62.535744 
L 464.100828 -64.368955 
L 462.202225 -66.142601 
L 460.303623 -67.711449 
L 458.405021 -68.932023 
L 456.506418 -69.684061 
L 454.607816 -69.890004 
L 452.709213 -69.528174 
L 450.810611 -68.636534 
L 448.912008 -67.306125 
L 447.013406 -65.665756 
L 445.114804 -63.861505 
L 443.216201 -62.03554 
L 441.317599 -60.308436 
L 439.418996 -58.767849 
L 437.520394 -57.464513 
L 435.621791 -56.414783 
L 433.723189 -55.607718 
L 431.824587 -55.014257 
L 429.925984 -54.596273 
L 428.027382 -54.313996 
L 426.128779 -54.131092 
L 424.230177 -54.017409 
L 422.331574 -53.949852 
L 420.432972 -53.91206 
L 418.53437 -53.893543 
L 416.635767 -53.888831 
L 414.737165 -53.897067 
L 412.838562 -53.922348 
L 410.93996 -53.975045 
L 409.041357 -54.07422 
L 407.142755 -54.251145 
L 405.244153 -54.553589 
L 403.34555 -55.050133 
L 401.446948 -55.833197 
L 399.548345 -57.018849 
L 397.649743 -58.741171 
L 395.75114 -61.139137 
L 393.852538 -64.335038 
L 391.953936 -68.405498 
L 390.055333 -73.348836 
L 388.156731 -79.055331 
L 386.258128 -85.28871 
L 384.359526 -91.687064 
L 382.460923 -97.788525 
L 380.562321 -103.081796 
L 378.663718 -107.075052 
L 376.765116 -109.370781 
L 374.866514 -109.730917 
L 372.967911 -108.117511 
L 371.069309 -104.699311 
L 369.170706 -99.822695 
L 367.272104 -93.953861 
L 365.373501 -87.605645 
L 363.474899 -81.26479 
L 361.576297 -75.333677 
L 359.677694 -70.095337 
L 357.779092 -65.703972 
L 355.880489 -62.197297 
L 353.981887 -59.523224 
L 352.083284 -57.572335 
L 350.184682 -56.208781 
L 348.28608 -55.29481 
L 346.387477 -54.706957 
L 344.488875 -54.344286 
L 342.590272 -54.130483 
L 340.69167 -54.012149 
L 338.793067 -53.955544 
L 336.894465 -53.943584 
L 334.995863 -53.974431 
L 333.09726 -54.062622 
L 331.198658 -54.243384 
L 329.300055 -54.58047 
L 327.401453 -55.177285 
L 325.50285 -56.190148 
L 323.604248 -57.841069 
L 321.705646 -60.425663 
L 319.807043 -64.310075 
L 317.908441 -69.910044 
L 316.009838 -77.646254 
L 314.111236 -87.87392 
L 312.212633 -100.791173 
L 310.314031 -116.339331 
L 308.415429 -134.11634 
L 306.516826 -153.329283 
L 304.618224 -172.810005 
L 302.719621 -191.107762 
L 300.821019 -206.655686 
L 298.922416 -217.987643 
L 297.023814 -223.965 
L 295.125212 -223.965 
L 293.226609 -217.987643 
L 291.328007 -206.655686 
L 289.429404 -191.107762 
L 287.530802 -172.810005 
L 285.632199 -153.329283 
L 283.733597 -134.11634 
L 281.834995 -116.339332 
L 279.936392 -100.791173 
L 278.03779 -87.873921 
L 276.139187 -77.646257 
L 274.240585 -69.910052 
L 272.341982 -64.310097 
L 270.44338 -60.425724 
L 268.544778 -57.841235 
L 266.646175 -56.190581 
L 264.747573 -55.178375 
L 262.84897 -54.583119 
L 260.950368 -54.249594 
L 259.051765 -54.076671 
L 257.153163 -54.005096 
L 255.254561 -54.008162 
L 253.355958 -54.086762 
L 251.457356 -54.269404 
L 249.558753 -54.617115 
L 247.660151 -55.232466 
L 245.761548 -56.271058 
L 243.862946 -57.952433 
L 241.964344 -60.565766 
L 240.065741 -64.464298 
L 238.167139 -70.041969 
L 236.268536 -77.687215 
L 234.369934 -87.71288 
L 232.471331 -100.267891 
L 230.572729 -115.244422 
L 228.674127 -132.201606 
L 226.775524 -150.330249 
L 224.876922 -168.479938 
L 222.978319 -185.259064 
L 221.079717 -199.201419 
L 219.181114 -208.974128 
L 217.282512 -213.586892 
L 215.38391 -212.557253 
L 213.485307 -205.993714 
L 211.586705 -194.576908 
L 209.688102 -179.443329 
L 207.7895 -161.999117 
L 205.890897 -143.70608 
L 203.992295 -125.884712 
L 202.093693 -109.569719 
L 200.19509 -95.436604 
L 198.296488 -83.79907 
L 196.397885 -74.661919 
L 194.499283 -67.806085 
L 192.60068 -62.881939 
L 190.702078 -59.49216 
L 188.803476 -57.253432 
L 186.904873 -55.833976 
L 185.006271 -54.969713 
L 183.107668 -54.46489 
L 181.209066 -54.18364 
L 179.310463 -54.037995 
L 177.411861 -53.976272 
L 175.513259 -53.974128 
L 173.614656 -54.029368 
L 171.716054 -54.160758 
L 169.817451 -54.410579 
L 167.918849 -54.850171 
L 166.020246 -55.587085 
L 164.121644 -56.771577 
L 162.223042 -58.599183 
L 160.324439 -61.305267 
L 158.425837 -65.147354 
L 156.527234 -70.372298 
L 154.628632 -77.168255 
L 152.730029 -85.606061 
L 150.831427 -95.57983 
L 148.932825 -106.761107 
L 147.034222 -118.58241 
L 145.13562 -130.263132 
L 143.237017 -140.882889 
L 141.338415 -149.495964 
L 139.439812 -155.268446 
L 137.54121 -157.610933 
L 135.642608 -156.277658 
L 133.744005 -151.408961 
L 131.845403 -143.506956 
L 129.9468 -133.350233 
L 128.048198 -121.867639 
L 126.149595 -109.999424 
L 124.250993 -98.574207 
L 122.352391 -88.223077 
L 120.453788 -79.34063 
L 118.555186 -72.090741 
L 116.656583 -66.44584 
L 114.757981 -62.244118 
L 112.859378 -59.249571 
L 110.960776 -57.203629 
L 109.062174 -55.862328 
L 107.163571 -55.017908 
z
" id="mfba98fe1a7" style="stroke:#0070c0;"/>
    </defs>
    <g clip-path="url(#p24226060f9)">
     <use style="fill:#0070c0;fill-opacity:0.25;stroke:#0070c0;" x="0" xlink:href="#mfba98fe1a7" y="283.5"/>
    </g>
   </g>
   <g id="PolyCollection_2">
    <defs>
     <path d="M 104.694545 -55.165592 
L 104.694545 -53.865 
L 106.218977 -53.865 
L 107.743409 -53.865 
L 109.26784 -53.865 
L 110.792272 -53.865 
L 112.316703 -53.865 
L 113.841135 -53.865 
L 115.365566 -53.865 
L 116.889998 -53.865 
L 118.41443 -53.865 
L 119.938861 -53.865 
L 121.463293 -53.865 
L 122.987724 -53.865 
L 124.512156 -53.865 
L 126.036587 -53.865 
L 127.561019 -53.865 
L 129.08545 -53.865 
L 130.609882 -53.865 
L 132.134314 -53.865 
L 133.658745 -53.865 
L 135.183177 -53.865 
L 136.707608 -53.865 
L 138.23204 -53.865 
L 139.756471 -53.865 
L 141.280903 -53.865 
L 142.805335 -53.865 
L 144.329766 -53.865 
L 145.854198 -53.865 
L 147.378629 -53.865 
L 148.903061 -53.865 
L 150.427492 -53.865 
L 151.951924 -53.865 
L 153.476355 -53.865 
L 155.000787 -53.865 
L 156.525219 -53.865 
L 158.04965 -53.865 
L 159.574082 -53.865 
L 161.098513 -53.865 
L 162.622945 -53.865 
L 164.147376 -53.865 
L 165.671808 -53.865 
L 167.19624 -53.865 
L 168.720671 -53.865 
L 170.245103 -53.865 
L 171.769534 -53.865 
L 173.293966 -53.865 
L 174.818397 -53.865 
L 176.342829 -53.865 
L 177.867261 -53.865 
L 179.391692 -53.865 
L 180.916124 -53.865 
L 182.440555 -53.865 
L 183.964987 -53.865 
L 185.489418 -53.865 
L 187.01385 -53.865 
L 188.538281 -53.865 
L 190.062713 -53.865 
L 191.587145 -53.865 
L 193.111576 -53.865 
L 194.636008 -53.865 
L 196.160439 -53.865 
L 197.684871 -53.865 
L 199.209302 -53.865 
L 200.733734 -53.865 
L 202.258166 -53.865 
L 203.782597 -53.865 
L 205.307029 -53.865 
L 206.83146 -53.865 
L 208.355892 -53.865 
L 209.880323 -53.865 
L 211.404755 -53.865 
L 212.929186 -53.865 
L 214.453618 -53.865 
L 215.97805 -53.865 
L 217.502481 -53.865 
L 219.026913 -53.865 
L 220.551344 -53.865 
L 222.075776 -53.865 
L 223.600207 -53.865 
L 225.124639 -53.865 
L 226.649071 -53.865 
L 228.173502 -53.865 
L 229.697934 -53.865 
L 231.222365 -53.865 
L 232.746797 -53.865 
L 234.271228 -53.865 
L 235.79566 -53.865 
L 237.320092 -53.865 
L 238.844523 -53.865 
L 240.368955 -53.865 
L 241.893386 -53.865 
L 243.417818 -53.865 
L 244.942249 -53.865 
L 246.466681 -53.865 
L 247.991112 -53.865 
L 249.515544 -53.865 
L 251.039976 -53.865 
L 252.564407 -53.865 
L 254.088839 -53.865 
L 255.61327 -53.865 
L 257.137702 -53.865 
L 258.662133 -53.865 
L 260.186565 -53.865 
L 261.710997 -53.865 
L 263.235428 -53.865 
L 264.75986 -53.865 
L 266.284291 -53.865 
L 267.808723 -53.865 
L 269.333154 -53.865 
L 270.857586 -53.865 
L 272.382017 -53.865 
L 273.906449 -53.865 
L 275.430881 -53.865 
L 276.955312 -53.865 
L 278.479744 -53.865 
L 280.004175 -53.865 
L 281.528607 -53.865 
L 283.053038 -53.865 
L 284.57747 -53.865 
L 286.101902 -53.865 
L 287.626333 -53.865 
L 289.150765 -53.865 
L 290.675196 -53.865 
L 292.199628 -53.865 
L 293.724059 -53.865 
L 295.248491 -53.865 
L 296.772923 -53.865 
L 298.297354 -53.865 
L 299.821786 -53.865 
L 301.346217 -53.865 
L 302.870649 -53.865 
L 304.39508 -53.865 
L 305.919512 -53.865 
L 307.443943 -53.865 
L 308.968375 -53.865 
L 310.492807 -53.865 
L 312.017238 -53.865 
L 313.54167 -53.865 
L 315.066101 -53.865 
L 316.590533 -53.865 
L 318.114964 -53.865 
L 319.639396 -53.865 
L 321.163828 -53.865 
L 322.688259 -53.865 
L 324.212691 -53.865 
L 325.737122 -53.865 
L 327.261554 -53.865 
L 328.785985 -53.865 
L 330.310417 -53.865 
L 331.834848 -53.865 
L 333.35928 -53.865 
L 334.883712 -53.865 
L 336.408143 -53.865 
L 337.932575 -53.865 
L 339.457006 -53.865 
L 340.981438 -53.865 
L 342.505869 -53.865 
L 344.030301 -53.865 
L 345.554733 -53.865 
L 347.079164 -53.865 
L 348.603596 -53.865 
L 350.128027 -53.865 
L 351.652459 -53.865 
L 353.17689 -53.865 
L 354.701322 -53.865 
L 356.225754 -53.865 
L 357.750185 -53.865 
L 359.274617 -53.865 
L 360.799048 -53.865 
L 362.32348 -53.865 
L 363.847911 -53.865 
L 365.372343 -53.865 
L 366.896774 -53.865 
L 368.421206 -53.865 
L 369.945638 -53.865 
L 371.470069 -53.865 
L 372.994501 -53.865 
L 374.518932 -53.865 
L 376.043364 -53.865 
L 377.567795 -53.865 
L 379.092227 -53.865 
L 380.616659 -53.865 
L 382.14109 -53.865 
L 383.665522 -53.865 
L 385.189953 -53.865 
L 386.714385 -53.865 
L 388.238816 -53.865 
L 389.763248 -53.865 
L 391.287679 -53.865 
L 392.812111 -53.865 
L 394.336543 -53.865 
L 395.860974 -53.865 
L 397.385406 -53.865 
L 398.909837 -53.865 
L 400.434269 -53.865 
L 401.9587 -53.865 
L 403.483132 -53.865 
L 405.007564 -53.865 
L 406.531995 -53.865 
L 408.056427 -53.865 
L 408.056427 -55.16545 
L 408.056427 -55.16545 
L 406.531995 -55.826921 
L 405.007564 -56.767112 
L 403.483132 -58.074122 
L 401.9587 -59.85068 
L 400.434269 -62.211034 
L 398.909837 -65.275152 
L 397.385406 -69.159925 
L 395.860974 -73.967401 
L 394.336543 -79.770571 
L 392.812111 -86.597793 
L 391.287679 -94.417498 
L 389.763248 -103.125272 
L 388.238816 -112.535617 
L 386.714385 -122.380552 
L 385.189953 -132.316693 
L 383.665522 -141.941516 
L 382.14109 -150.8183 
L 380.616659 -158.507887 
L 379.092227 -164.604226 
L 377.567795 -168.76973 
L 376.043364 -170.766204 
L 374.518932 -170.477395 
L 372.994501 -167.920202 
L 371.470069 -163.24304 
L 369.945638 -156.711574 
L 368.421206 -148.683738 
L 366.896774 -139.577304 
L 365.372343 -129.834072 
L 363.847911 -119.88494 
L 362.32348 -110.119606 
L 360.799048 -100.863686 
L 359.274617 -92.364759 
L 357.750185 -84.787531 
L 356.225754 -78.217127 
L 354.701322 -72.668727 
L 353.17689 -68.101299 
L 351.652459 -64.433151 
L 350.128027 -61.557313 
L 348.603596 -59.355239 
L 347.079164 -57.707898 
L 345.554733 -56.503871 
L 344.030301 -55.644547 
L 342.505869 -55.04682 
L 340.981438 -54.643866 
L 339.457006 -54.384656 
L 337.932575 -54.232803 
L 336.408143 -54.16527 
L 334.883712 -54.171305 
L 333.35928 -54.251882 
L 331.834848 -54.419757 
L 330.310417 -54.700116 
L 328.785985 -55.131707 
L 327.261554 -55.768133 
L 325.737122 -56.678937 
L 324.212691 -57.949919 
L 322.688259 -59.682084 
L 321.163828 -61.988561 
L 319.639396 -64.988948 
L 318.114964 -68.800704 
L 316.590533 -73.527581 
L 315.066101 -79.245564 
L 313.54167 -85.987334 
L 312.017238 -93.726875 
L 310.492807 -102.366265 
L 308.968375 -111.726953 
L 307.443943 -121.547715 
L 305.919512 -131.490982 
L 304.39508 -141.158337 
L 302.870649 -150.114779 
L 301.346217 -157.92002 
L 299.821786 -164.16385 
L 298.297354 -168.501677 
L 296.772923 -170.68598 
L 295.248491 -170.589698 
L 293.724059 -168.218463 
L 292.199628 -163.710062 
L 290.675196 -157.321173 
L 289.150765 -149.403173 
L 287.626333 -140.370179 
L 286.101902 -130.663359 
L 284.57747 -120.715772 
L 283.053038 -110.921558 
L 281.528607 -101.61236 
L 280.004175 -93.042602 
L 278.479744 -85.383899 
L 276.955312 -78.727744 
L 275.430881 -73.094687 
L 273.906449 -68.447815 
L 272.382017 -64.708236 
L 270.857586 -61.77054 
L 269.333154 -59.516686 
L 267.808723 -57.827328 
L 266.284291 -56.590174 
L 264.75986 -55.705406 
L 263.235428 -55.088568 
L 261.710997 -54.671479 
L 260.186565 -54.401825 
L 258.662133 -54.242046 
L 257.137702 -54.168031 
L 255.61327 -54.168031 
L 254.088839 -54.242046 
L 252.564407 -54.401825 
L 251.039976 -54.671479 
L 249.515544 -55.088568 
L 247.991112 -55.705406 
L 246.466681 -56.590174 
L 244.942249 -57.827328 
L 243.417818 -59.516686 
L 241.893386 -61.77054 
L 240.368955 -64.708236 
L 238.844523 -68.447815 
L 237.320092 -73.094687 
L 235.79566 -78.727744 
L 234.271228 -85.383899 
L 232.746797 -93.042602 
L 231.222365 -101.61236 
L 229.697934 -110.921558 
L 228.173502 -120.715772 
L 226.649071 -130.663359 
L 225.124639 -140.370179 
L 223.600207 -149.403173 
L 222.075776 -157.321173 
L 220.551344 -163.710062 
L 219.026913 -168.218463 
L 217.502481 -170.589698 
L 215.97805 -170.68598 
L 214.453618 -168.501677 
L 212.929186 -164.16385 
L 211.404755 -157.92002 
L 209.880323 -150.114779 
L 208.355892 -141.158337 
L 206.83146 -131.490982 
L 205.307029 -121.547715 
L 203.782597 -111.726953 
L 202.258166 -102.366265 
L 200.733734 -93.726875 
L 199.209302 -85.987334 
L 197.684871 -79.245564 
L 196.160439 -73.527581 
L 194.636008 -68.800704 
L 193.111576 -64.988948 
L 191.587145 -61.988561 
L 190.062713 -59.682084 
L 188.538281 -57.94992 
L 187.01385 -56.678937 
L 185.489418 -55.768134 
L 183.964987 -55.131708 
L 182.440555 -54.700119 
L 180.916124 -54.419761 
L 179.391692 -54.251889 
L 177.867261 -54.171317 
L 176.342829 -54.16529 
L 174.818397 -54.232836 
L 173.293966 -54.384708 
L 171.769534 -54.643949 
L 170.245103 -55.046948 
L 168.720671 -55.644741 
L 167.19624 -56.50416 
L 165.671808 -57.708319 
L 164.147376 -59.355841 
L 162.622945 -61.558156 
L 161.098513 -64.43431 
L 159.574082 -68.10286 
L 158.04965 -72.670789 
L 156.525219 -78.219798 
L 155.000787 -84.790923 
L 153.476355 -92.368982 
L 151.951924 -100.86884 
L 150.427492 -110.125776 
L 148.903061 -119.892181 
L 147.378629 -129.842404 
L 145.854198 -139.586704 
L 144.329766 -148.694137 
L 142.805335 -156.722853 
L 141.280903 -163.255036 
L 139.756471 -167.932711 
L 138.23204 -170.490184 
L 136.707608 -170.779025 
L 135.183177 -168.782332 
L 133.658745 -164.616371 
L 132.134314 -158.519363 
L 130.609882 -150.828933 
L 129.08545 -141.951176 
L 127.561019 -132.325297 
L 126.036587 -122.388066 
L 124.512156 -112.542052 
L 122.987724 -103.130674 
L 121.463293 -94.421945 
L 119.938861 -86.601383 
L 118.41443 -79.773412 
L 116.889998 -73.969606 
L 115.365566 -69.161602 
L 113.841135 -65.276403 
L 112.316703 -62.211949 
L 110.792272 -59.851337 
L 109.26784 -58.074584 
L 107.743409 -56.767431 
L 106.218977 -55.827136 
L 104.694545 -55.165592 
z
" id="maeedc5b0c5" style="stroke:#ffa500;"/>
    </defs>
    <g clip-path="url(#p24226060f9)">
     <use style="fill:#ffa500;fill-opacity:0.25;stroke:#ffa500;" x="0" xlink:href="#maeedc5b0c5" y="283.5"/>
    </g>
   </g>
   <g id="matplotlib.axis_1">
    <g id="xtick_1">
     <g id="line2d_1">
      <defs>
       <path d="M 0 0 
L 0 3.5 
" id="meb573c3b0e" style="stroke:#cccccc;stroke-width:0.8;"/>
      </defs>
      <g>
       <use style="fill:#cccccc;stroke:#cccccc;stroke-width:0.8;" x="137.278406" xlink:href="#meb573c3b0e" y="229.635"/>
      </g>
     </g>
     <g id="text_1">
      <!-- Unrelated -->
      <g style="fill:#777777;" transform="translate(115.217859 243.473594)scale(0.09 -0.09)">
       <defs>
        <path d="M 556 4666 
L 1191 4666 
L 1191 1831 
Q 1191 1081 1462 751 
Q 1734 422 2344 422 
Q 2950 422 3222 751 
Q 3494 1081 3494 1831 
L 3494 4666 
L 4128 4666 
L 4128 1753 
Q 4128 841 3676 375 
Q 3225 -91 2344 -91 
Q 1459 -91 1007 375 
Q 556 841 556 1753 
L 556 4666 
z
" id="DejaVuSans-55" transform="scale(0.015625)"/>
        <path d="M 3513 2113 
L 3513 0 
L 2938 0 
L 2938 2094 
Q 2938 2591 2744 2837 
Q 2550 3084 2163 3084 
Q 1697 3084 1428 2787 
Q 1159 2491 1159 1978 
L 1159 0 
L 581 0 
L 581 3500 
L 1159 3500 
L 1159 2956 
Q 1366 3272 1645 3428 
Q 1925 3584 2291 3584 
Q 2894 3584 3203 3211 
Q 3513 2838 3513 2113 
z
" id="DejaVuSans-6e" transform="scale(0.015625)"/>
        <path d="M 2631 2963 
Q 2534 3019 2420 3045 
Q 2306 3072 2169 3072 
Q 1681 3072 1420 2755 
Q 1159 2438 1159 1844 
L 1159 0 
L 581 0 
L 581 3500 
L 1159 3500 
L 1159 2956 
Q 1341 3275 1631 3429 
Q 1922 3584 2338 3584 
Q 2397 3584 2469 3576 
Q 2541 3569 2628 3553 
L 2631 2963 
z
" id="DejaVuSans-72" transform="scale(0.015625)"/>
        <path d="M 3597 1894 
L 3597 1613 
L 953 1613 
Q 991 1019 1311 708 
Q 1631 397 2203 397 
Q 2534 397 2845 478 
Q 3156 559 3463 722 
L 3463 178 
Q 3153 47 2828 -22 
Q 2503 -91 2169 -91 
Q 1331 -91 842 396 
Q 353 884 353 1716 
Q 353 2575 817 3079 
Q 1281 3584 2069 3584 
Q 2775 3584 3186 3129 
Q 3597 2675 3597 1894 
z
M 3022 2063 
Q 3016 2534 2758 2815 
Q 2500 3097 2075 3097 
Q 1594 3097 1305 2825 
Q 1016 2553 972 2059 
L 3022 2063 
z
" id="DejaVuSans-65" transform="scale(0.015625)"/>
        <path d="M 603 4863 
L 1178 4863 
L 1178 0 
L 603 0 
L 603 4863 
z
" id="DejaVuSans-6c" transform="scale(0.015625)"/>
        <path d="M 2194 1759 
Q 1497 1759 1228 1600 
Q 959 1441 959 1056 
Q 959 750 1161 570 
Q 1363 391 1709 391 
Q 2188 391 2477 730 
Q 2766 1069 2766 1631 
L 2766 1759 
L 2194 1759 
z
M 3341 1997 
L 3341 0 
L 2766 0 
L 2766 531 
Q 2569 213 2275 61 
Q 1981 -91 1556 -91 
Q 1019 -91 701 211 
Q 384 513 384 1019 
Q 384 1609 779 1909 
Q 1175 2209 1959 2209 
L 2766 2209 
L 2766 2266 
Q 2766 2663 2505 2880 
Q 2244 3097 1772 3097 
Q 1472 3097 1187 3025 
Q 903 2953 641 2809 
L 641 3341 
Q 956 3463 1253 3523 
Q 1550 3584 1831 3584 
Q 2591 3584 2966 3190 
Q 3341 2797 3341 1997 
z
" id="DejaVuSans-61" transform="scale(0.015625)"/>
        <path d="M 1172 4494 
L 1172 3500 
L 2356 3500 
L 2356 3053 
L 1172 3053 
L 1172 1153 
Q 1172 725 1289 603 
Q 1406 481 1766 481 
L 2356 481 
L 2356 0 
L 1766 0 
Q 1100 0 847 248 
Q 594 497 594 1153 
L 594 3053 
L 172 3053 
L 172 3500 
L 594 3500 
L 594 4494 
L 1172 4494 
z
" id="DejaVuSans-74" transform="scale(0.015625)"/>
        <path d="M 2906 2969 
L 2906 4863 
L 3481 4863 
L 3481 0 
L 2906 0 
L 2906 525 
Q 2725 213 2448 61 
Q 2172 -91 1784 -91 
Q 1150 -91 751 415 
Q 353 922 353 1747 
Q 353 2572 751 3078 
Q 1150 3584 1784 3584 
Q 2172 3584 2448 3432 
Q 2725 3281 2906 2969 
z
M 947 1747 
Q 947 1113 1208 752 
Q 1469 391 1925 391 
Q 2381 391 2643 752 
Q 2906 1113 2906 1747 
Q 2906 2381 2643 2742 
Q 2381 3103 1925 3103 
Q 1469 3103 1208 2742 
Q 947 2381 947 1747 
z
" id="DejaVuSans-64" transform="scale(0.015625)"/>
       </defs>
       <use xlink:href="#DejaVuSans-55"/>
       <use x="73.193359" xlink:href="#DejaVuSans-6e"/>
       <use x="136.572266" xlink:href="#DejaVuSans-72"/>
       <use x="175.435547" xlink:href="#DejaVuSans-65"/>
       <use x="236.958984" xlink:href="#DejaVuSans-6c"/>
       <use x="264.742188" xlink:href="#DejaVuSans-61"/>
       <use x="326.021484" xlink:href="#DejaVuSans-74"/>
       <use x="365.230469" xlink:href="#DejaVuSans-65"/>
       <use x="426.753906" xlink:href="#DejaVuSans-64"/>
      </g>
     </g>
    </g>
    <g id="xtick_2">
     <g id="line2d_2">
      <g>
       <use style="fill:#cccccc;stroke:#cccccc;stroke-width:0.8;" x="216.676459" xlink:href="#meb573c3b0e" y="229.635"/>
      </g>
     </g>
     <g id="text_2">
      <!-- Somewhat Related -->
      <g style="fill:#777777;" transform="translate(174.339194 243.473594)scale(0.09 -0.09)">
       <defs>
        <path d="M 3425 4513 
L 3425 3897 
Q 3066 4069 2747 4153 
Q 2428 4238 2131 4238 
Q 1616 4238 1336 4038 
Q 1056 3838 1056 3469 
Q 1056 3159 1242 3001 
Q 1428 2844 1947 2747 
L 2328 2669 
Q 3034 2534 3370 2195 
Q 3706 1856 3706 1288 
Q 3706 609 3251 259 
Q 2797 -91 1919 -91 
Q 1588 -91 1214 -16 
Q 841 59 441 206 
L 441 856 
Q 825 641 1194 531 
Q 1563 422 1919 422 
Q 2459 422 2753 634 
Q 3047 847 3047 1241 
Q 3047 1584 2836 1778 
Q 2625 1972 2144 2069 
L 1759 2144 
Q 1053 2284 737 2584 
Q 422 2884 422 3419 
Q 422 4038 858 4394 
Q 1294 4750 2059 4750 
Q 2388 4750 2728 4690 
Q 3069 4631 3425 4513 
z
" id="DejaVuSans-53" transform="scale(0.015625)"/>
        <path d="M 1959 3097 
Q 1497 3097 1228 2736 
Q 959 2375 959 1747 
Q 959 1119 1226 758 
Q 1494 397 1959 397 
Q 2419 397 2687 759 
Q 2956 1122 2956 1747 
Q 2956 2369 2687 2733 
Q 2419 3097 1959 3097 
z
M 1959 3584 
Q 2709 3584 3137 3096 
Q 3566 2609 3566 1747 
Q 3566 888 3137 398 
Q 2709 -91 1959 -91 
Q 1206 -91 779 398 
Q 353 888 353 1747 
Q 353 2609 779 3096 
Q 1206 3584 1959 3584 
z
" id="DejaVuSans-6f" transform="scale(0.015625)"/>
        <path d="M 3328 2828 
Q 3544 3216 3844 3400 
Q 4144 3584 4550 3584 
Q 5097 3584 5394 3201 
Q 5691 2819 5691 2113 
L 5691 0 
L 5113 0 
L 5113 2094 
Q 5113 2597 4934 2840 
Q 4756 3084 4391 3084 
Q 3944 3084 3684 2787 
Q 3425 2491 3425 1978 
L 3425 0 
L 2847 0 
L 2847 2094 
Q 2847 2600 2669 2842 
Q 2491 3084 2119 3084 
Q 1678 3084 1418 2786 
Q 1159 2488 1159 1978 
L 1159 0 
L 581 0 
L 581 3500 
L 1159 3500 
L 1159 2956 
Q 1356 3278 1631 3431 
Q 1906 3584 2284 3584 
Q 2666 3584 2933 3390 
Q 3200 3197 3328 2828 
z
" id="DejaVuSans-6d" transform="scale(0.015625)"/>
        <path d="M 269 3500 
L 844 3500 
L 1563 769 
L 2278 3500 
L 2956 3500 
L 3675 769 
L 4391 3500 
L 4966 3500 
L 4050 0 
L 3372 0 
L 2619 2869 
L 1863 0 
L 1184 0 
L 269 3500 
z
" id="DejaVuSans-77" transform="scale(0.015625)"/>
        <path d="M 3513 2113 
L 3513 0 
L 2938 0 
L 2938 2094 
Q 2938 2591 2744 2837 
Q 2550 3084 2163 3084 
Q 1697 3084 1428 2787 
Q 1159 2491 1159 1978 
L 1159 0 
L 581 0 
L 581 4863 
L 1159 4863 
L 1159 2956 
Q 1366 3272 1645 3428 
Q 1925 3584 2291 3584 
Q 2894 3584 3203 3211 
Q 3513 2838 3513 2113 
z
" id="DejaVuSans-68" transform="scale(0.015625)"/>
        <path id="DejaVuSans-20" transform="scale(0.015625)"/>
        <path d="M 2841 2188 
Q 3044 2119 3236 1894 
Q 3428 1669 3622 1275 
L 4263 0 
L 3584 0 
L 2988 1197 
Q 2756 1666 2539 1819 
Q 2322 1972 1947 1972 
L 1259 1972 
L 1259 0 
L 628 0 
L 628 4666 
L 2053 4666 
Q 2853 4666 3247 4331 
Q 3641 3997 3641 3322 
Q 3641 2881 3436 2590 
Q 3231 2300 2841 2188 
z
M 1259 4147 
L 1259 2491 
L 2053 2491 
Q 2509 2491 2742 2702 
Q 2975 2913 2975 3322 
Q 2975 3731 2742 3939 
Q 2509 4147 2053 4147 
L 1259 4147 
z
" id="DejaVuSans-52" transform="scale(0.015625)"/>
       </defs>
       <use xlink:href="#DejaVuSans-53"/>
       <use x="63.476562" xlink:href="#DejaVuSans-6f"/>
       <use x="124.658203" xlink:href="#DejaVuSans-6d"/>
       <use x="222.070312" xlink:href="#DejaVuSans-65"/>
       <use x="283.59375" xlink:href="#DejaVuSans-77"/>
       <use x="365.380859" xlink:href="#DejaVuSans-68"/>
       <use x="428.759766" xlink:href="#DejaVuSans-61"/>
       <use x="490.039062" xlink:href="#DejaVuSans-74"/>
       <use x="529.248047" xlink:href="#DejaVuSans-20"/>
       <use x="561.035156" xlink:href="#DejaVuSans-52"/>
       <use x="626.017578" xlink:href="#DejaVuSans-65"/>
       <use x="687.541016" xlink:href="#DejaVuSans-6c"/>
       <use x="715.324219" xlink:href="#DejaVuSans-61"/>
       <use x="776.603516" xlink:href="#DejaVuSans-74"/>
       <use x="815.8125" xlink:href="#DejaVuSans-65"/>
       <use x="877.335938" xlink:href="#DejaVuSans-64"/>
      </g>
     </g>
    </g>
    <g id="xtick_3">
     <g id="line2d_3">
      <g>
       <use style="fill:#cccccc;stroke:#cccccc;stroke-width:0.8;" x="296.074513" xlink:href="#meb573c3b0e" y="229.635"/>
      </g>
     </g>
     <g id="text_3">
      <!-- Synonym -->
      <g style="fill:#777777;" transform="translate(275.050372 243.473594)scale(0.09 -0.09)">
       <defs>
        <path d="M 2059 -325 
Q 1816 -950 1584 -1140 
Q 1353 -1331 966 -1331 
L 506 -1331 
L 506 -850 
L 844 -850 
Q 1081 -850 1212 -737 
Q 1344 -625 1503 -206 
L 1606 56 
L 191 3500 
L 800 3500 
L 1894 763 
L 2988 3500 
L 3597 3500 
L 2059 -325 
z
" id="DejaVuSans-79" transform="scale(0.015625)"/>
       </defs>
       <use xlink:href="#DejaVuSans-53"/>
       <use x="63.476562" xlink:href="#DejaVuSans-79"/>
       <use x="122.65625" xlink:href="#DejaVuSans-6e"/>
       <use x="186.035156" xlink:href="#DejaVuSans-6f"/>
       <use x="247.216797" xlink:href="#DejaVuSans-6e"/>
       <use x="310.595703" xlink:href="#DejaVuSans-79"/>
       <use x="369.775391" xlink:href="#DejaVuSans-6d"/>
      </g>
     </g>
    </g>
    <g id="xtick_4">
     <g id="line2d_4">
      <g>
       <use style="fill:#cccccc;stroke:#cccccc;stroke-width:0.8;" x="375.472566" xlink:href="#meb573c3b0e" y="229.635"/>
      </g>
     </g>
     <g id="text_4">
      <!-- Close Synonym -->
      <g style="fill:#777777;" transform="translate(340.759285 243.473594)scale(0.09 -0.09)">
       <defs>
        <path d="M 4122 4306 
L 4122 3641 
Q 3803 3938 3442 4084 
Q 3081 4231 2675 4231 
Q 1875 4231 1450 3742 
Q 1025 3253 1025 2328 
Q 1025 1406 1450 917 
Q 1875 428 2675 428 
Q 3081 428 3442 575 
Q 3803 722 4122 1019 
L 4122 359 
Q 3791 134 3420 21 
Q 3050 -91 2638 -91 
Q 1578 -91 968 557 
Q 359 1206 359 2328 
Q 359 3453 968 4101 
Q 1578 4750 2638 4750 
Q 3056 4750 3426 4639 
Q 3797 4528 4122 4306 
z
" id="DejaVuSans-43" transform="scale(0.015625)"/>
        <path d="M 2834 3397 
L 2834 2853 
Q 2591 2978 2328 3040 
Q 2066 3103 1784 3103 
Q 1356 3103 1142 2972 
Q 928 2841 928 2578 
Q 928 2378 1081 2264 
Q 1234 2150 1697 2047 
L 1894 2003 
Q 2506 1872 2764 1633 
Q 3022 1394 3022 966 
Q 3022 478 2636 193 
Q 2250 -91 1575 -91 
Q 1294 -91 989 -36 
Q 684 19 347 128 
L 347 722 
Q 666 556 975 473 
Q 1284 391 1588 391 
Q 1994 391 2212 530 
Q 2431 669 2431 922 
Q 2431 1156 2273 1281 
Q 2116 1406 1581 1522 
L 1381 1569 
Q 847 1681 609 1914 
Q 372 2147 372 2553 
Q 372 3047 722 3315 
Q 1072 3584 1716 3584 
Q 2034 3584 2315 3537 
Q 2597 3491 2834 3397 
z
" id="DejaVuSans-73" transform="scale(0.015625)"/>
       </defs>
       <use xlink:href="#DejaVuSans-43"/>
       <use x="69.824219" xlink:href="#DejaVuSans-6c"/>
       <use x="97.607422" xlink:href="#DejaVuSans-6f"/>
       <use x="158.789062" xlink:href="#DejaVuSans-73"/>
       <use x="210.888672" xlink:href="#DejaVuSans-65"/>
       <use x="272.412109" xlink:href="#DejaVuSans-20"/>
       <use x="304.199219" xlink:href="#DejaVuSans-53"/>
       <use x="367.675781" xlink:href="#DejaVuSans-79"/>
       <use x="426.855469" xlink:href="#DejaVuSans-6e"/>
       <use x="490.234375" xlink:href="#DejaVuSans-6f"/>
       <use x="551.416016" xlink:href="#DejaVuSans-6e"/>
       <use x="614.794922" xlink:href="#DejaVuSans-79"/>
       <use x="673.974609" xlink:href="#DejaVuSans-6d"/>
      </g>
     </g>
    </g>
    <g id="xtick_5">
     <g id="line2d_5">
      <g>
       <use style="fill:#cccccc;stroke:#cccccc;stroke-width:0.8;" x="454.87062" xlink:href="#meb573c3b0e" y="229.635"/>
      </g>
     </g>
     <g id="text_5">
      <!-- Close Match -->
      <g style="fill:#777777;" transform="translate(427.450854 243.473594)scale(0.09 -0.09)">
       <defs>
        <path d="M 628 4666 
L 1569 4666 
L 2759 1491 
L 3956 4666 
L 4897 4666 
L 4897 0 
L 4281 0 
L 4281 4097 
L 3078 897 
L 2444 897 
L 1241 4097 
L 1241 0 
L 628 0 
L 628 4666 
z
" id="DejaVuSans-4d" transform="scale(0.015625)"/>
        <path d="M 3122 3366 
L 3122 2828 
Q 2878 2963 2633 3030 
Q 2388 3097 2138 3097 
Q 1578 3097 1268 2742 
Q 959 2388 959 1747 
Q 959 1106 1268 751 
Q 1578 397 2138 397 
Q 2388 397 2633 464 
Q 2878 531 3122 666 
L 3122 134 
Q 2881 22 2623 -34 
Q 2366 -91 2075 -91 
Q 1284 -91 818 406 
Q 353 903 353 1747 
Q 353 2603 823 3093 
Q 1294 3584 2113 3584 
Q 2378 3584 2631 3529 
Q 2884 3475 3122 3366 
z
" id="DejaVuSans-63" transform="scale(0.015625)"/>
       </defs>
       <use xlink:href="#DejaVuSans-43"/>
       <use x="69.824219" xlink:href="#DejaVuSans-6c"/>
       <use x="97.607422" xlink:href="#DejaVuSans-6f"/>
       <use x="158.789062" xlink:href="#DejaVuSans-73"/>
       <use x="210.888672" xlink:href="#DejaVuSans-65"/>
       <use x="272.412109" xlink:href="#DejaVuSans-20"/>
       <use x="304.199219" xlink:href="#DejaVuSans-4d"/>
       <use x="390.478516" xlink:href="#DejaVuSans-61"/>
       <use x="451.757812" xlink:href="#DejaVuSans-74"/>
       <use x="490.966797" xlink:href="#DejaVuSans-63"/>
       <use x="545.947266" xlink:href="#DejaVuSans-68"/>
      </g>
     </g>
    </g>
    <g id="text_6">
     <!-- Training Score -->
     <g style="fill:#999999;" transform="translate(263.054531 256.183906)scale(0.09 -0.09)">
      <defs>
       <path d="M -19 4666 
L 3928 4666 
L 3928 4134 
L 2272 4134 
L 2272 0 
L 1638 0 
L 1638 4134 
L -19 4134 
L -19 4666 
z
" id="DejaVuSans-54" transform="scale(0.015625)"/>
       <path d="M 603 3500 
L 1178 3500 
L 1178 0 
L 603 0 
L 603 3500 
z
M 603 4863 
L 1178 4863 
L 1178 4134 
L 603 4134 
L 603 4863 
z
" id="DejaVuSans-69" transform="scale(0.015625)"/>
       <path d="M 2906 1791 
Q 2906 2416 2648 2759 
Q 2391 3103 1925 3103 
Q 1463 3103 1205 2759 
Q 947 2416 947 1791 
Q 947 1169 1205 825 
Q 1463 481 1925 481 
Q 2391 481 2648 825 
Q 2906 1169 2906 1791 
z
M 3481 434 
Q 3481 -459 3084 -895 
Q 2688 -1331 1869 -1331 
Q 1566 -1331 1297 -1286 
Q 1028 -1241 775 -1147 
L 775 -588 
Q 1028 -725 1275 -790 
Q 1522 -856 1778 -856 
Q 2344 -856 2625 -561 
Q 2906 -266 2906 331 
L 2906 616 
Q 2728 306 2450 153 
Q 2172 0 1784 0 
Q 1141 0 747 490 
Q 353 981 353 1791 
Q 353 2603 747 3093 
Q 1141 3584 1784 3584 
Q 2172 3584 2450 3431 
Q 2728 3278 2906 2969 
L 2906 3500 
L 3481 3500 
L 3481 434 
z
" id="DejaVuSans-67" transform="scale(0.015625)"/>
      </defs>
      <use xlink:href="#DejaVuSans-54"/>
      <use x="46.333984" xlink:href="#DejaVuSans-72"/>
      <use x="87.447266" xlink:href="#DejaVuSans-61"/>
      <use x="148.726562" xlink:href="#DejaVuSans-69"/>
      <use x="176.509766" xlink:href="#DejaVuSans-6e"/>
      <use x="239.888672" xlink:href="#DejaVuSans-69"/>
      <use x="267.671875" xlink:href="#DejaVuSans-6e"/>
      <use x="331.050781" xlink:href="#DejaVuSans-67"/>
      <use x="394.527344" xlink:href="#DejaVuSans-20"/>
      <use x="426.314453" xlink:href="#DejaVuSans-53"/>
      <use x="489.791016" xlink:href="#DejaVuSans-63"/>
      <use x="544.771484" xlink:href="#DejaVuSans-6f"/>
      <use x="605.953125" xlink:href="#DejaVuSans-72"/>
      <use x="644.816406" xlink:href="#DejaVuSans-65"/>
     </g>
    </g>
   </g>
   <g id="matplotlib.axis_2">
    <g id="ytick_1">
     <g id="line2d_6">
      <defs>
       <path d="M 0 0 
L -3.5 0 
" id="m4fcedd1f8f" style="stroke:#cccccc;stroke-width:0.8;"/>
      </defs>
      <g>
       <use style="fill:#cccccc;stroke:#cccccc;stroke-width:0.8;" x="85.68" xlink:href="#m4fcedd1f8f" y="229.635"/>
      </g>
     </g>
     <g id="text_7">
      <!-- 0.0 -->
      <g style="fill:#777777;" transform="translate(64.367188 233.054297)scale(0.09 -0.09)">
       <defs>
        <path d="M 2034 4250 
Q 1547 4250 1301 3770 
Q 1056 3291 1056 2328 
Q 1056 1369 1301 889 
Q 1547 409 2034 409 
Q 2525 409 2770 889 
Q 3016 1369 3016 2328 
Q 3016 3291 2770 3770 
Q 2525 4250 2034 4250 
z
M 2034 4750 
Q 2819 4750 3233 4129 
Q 3647 3509 3647 2328 
Q 3647 1150 3233 529 
Q 2819 -91 2034 -91 
Q 1250 -91 836 529 
Q 422 1150 422 2328 
Q 422 3509 836 4129 
Q 1250 4750 2034 4750 
z
" id="DejaVuSans-30" transform="scale(0.015625)"/>
        <path d="M 684 794 
L 1344 794 
L 1344 0 
L 684 0 
L 684 794 
z
" id="DejaVuSans-2e" transform="scale(0.015625)"/>
       </defs>
       <use xlink:href="#DejaVuSans-30"/>
       <use x="63.623047" xlink:href="#DejaVuSans-2e"/>
       <use x="95.410156" xlink:href="#DejaVuSans-30"/>
      </g>
     </g>
    </g>
    <g id="ytick_2">
     <g id="line2d_7">
      <g>
       <use style="fill:#cccccc;stroke:#cccccc;stroke-width:0.8;" x="85.68" xlink:href="#m4fcedd1f8f" y="209.564325"/>
      </g>
     </g>
     <g id="text_8">
      <!-- 0.5 -->
      <g style="fill:#777777;" transform="translate(64.367188 212.983622)scale(0.09 -0.09)">
       <defs>
        <path d="M 691 4666 
L 3169 4666 
L 3169 4134 
L 1269 4134 
L 1269 2991 
Q 1406 3038 1543 3061 
Q 1681 3084 1819 3084 
Q 2600 3084 3056 2656 
Q 3513 2228 3513 1497 
Q 3513 744 3044 326 
Q 2575 -91 1722 -91 
Q 1428 -91 1123 -41 
Q 819 9 494 109 
L 494 744 
Q 775 591 1075 516 
Q 1375 441 1709 441 
Q 2250 441 2565 725 
Q 2881 1009 2881 1497 
Q 2881 1984 2565 2268 
Q 2250 2553 1709 2553 
Q 1456 2553 1204 2497 
Q 953 2441 691 2322 
L 691 4666 
z
" id="DejaVuSans-35" transform="scale(0.015625)"/>
       </defs>
       <use xlink:href="#DejaVuSans-30"/>
       <use x="63.623047" xlink:href="#DejaVuSans-2e"/>
       <use x="95.410156" xlink:href="#DejaVuSans-35"/>
      </g>
     </g>
    </g>
    <g id="ytick_3">
     <g id="line2d_8">
      <g>
       <use style="fill:#cccccc;stroke:#cccccc;stroke-width:0.8;" x="85.68" xlink:href="#m4fcedd1f8f" y="189.493649"/>
      </g>
     </g>
     <g id="text_9">
      <!-- 1.0 -->
      <g style="fill:#777777;" transform="translate(64.367188 192.912946)scale(0.09 -0.09)">
       <defs>
        <path d="M 794 531 
L 1825 531 
L 1825 4091 
L 703 3866 
L 703 4441 
L 1819 4666 
L 2450 4666 
L 2450 531 
L 3481 531 
L 3481 0 
L 794 0 
L 794 531 
z
" id="DejaVuSans-31" transform="scale(0.015625)"/>
       </defs>
       <use xlink:href="#DejaVuSans-31"/>
       <use x="63.623047" xlink:href="#DejaVuSans-2e"/>
       <use x="95.410156" xlink:href="#DejaVuSans-30"/>
      </g>
     </g>
    </g>
    <g id="ytick_4">
     <g id="line2d_9">
      <g>
       <use style="fill:#cccccc;stroke:#cccccc;stroke-width:0.8;" x="85.68" xlink:href="#m4fcedd1f8f" y="169.422974"/>
      </g>
     </g>
     <g id="text_10">
      <!-- 1.5 -->
      <g style="fill:#777777;" transform="translate(64.367188 172.842271)scale(0.09 -0.09)">
       <use xlink:href="#DejaVuSans-31"/>
       <use x="63.623047" xlink:href="#DejaVuSans-2e"/>
       <use x="95.410156" xlink:href="#DejaVuSans-35"/>
      </g>
     </g>
    </g>
    <g id="ytick_5">
     <g id="line2d_10">
      <g>
       <use style="fill:#cccccc;stroke:#cccccc;stroke-width:0.8;" x="85.68" xlink:href="#m4fcedd1f8f" y="149.352299"/>
      </g>
     </g>
     <g id="text_11">
      <!-- 2.0 -->
      <g style="fill:#777777;" transform="translate(64.367188 152.771596)scale(0.09 -0.09)">
       <defs>
        <path d="M 1228 531 
L 3431 531 
L 3431 0 
L 469 0 
L 469 531 
Q 828 903 1448 1529 
Q 2069 2156 2228 2338 
Q 2531 2678 2651 2914 
Q 2772 3150 2772 3378 
Q 2772 3750 2511 3984 
Q 2250 4219 1831 4219 
Q 1534 4219 1204 4116 
Q 875 4013 500 3803 
L 500 4441 
Q 881 4594 1212 4672 
Q 1544 4750 1819 4750 
Q 2544 4750 2975 4387 
Q 3406 4025 3406 3419 
Q 3406 3131 3298 2873 
Q 3191 2616 2906 2266 
Q 2828 2175 2409 1742 
Q 1991 1309 1228 531 
z
" id="DejaVuSans-32" transform="scale(0.015625)"/>
       </defs>
       <use xlink:href="#DejaVuSans-32"/>
       <use x="63.623047" xlink:href="#DejaVuSans-2e"/>
       <use x="95.410156" xlink:href="#DejaVuSans-30"/>
      </g>
     </g>
    </g>
    <g id="ytick_6">
     <g id="line2d_11">
      <g>
       <use style="fill:#cccccc;stroke:#cccccc;stroke-width:0.8;" x="85.68" xlink:href="#m4fcedd1f8f" y="129.281623"/>
      </g>
     </g>
     <g id="text_12">
      <!-- 2.5 -->
      <g style="fill:#777777;" transform="translate(64.367188 132.70092)scale(0.09 -0.09)">
       <use xlink:href="#DejaVuSans-32"/>
       <use x="63.623047" xlink:href="#DejaVuSans-2e"/>
       <use x="95.410156" xlink:href="#DejaVuSans-35"/>
      </g>
     </g>
    </g>
    <g id="ytick_7">
     <g id="line2d_12">
      <g>
       <use style="fill:#cccccc;stroke:#cccccc;stroke-width:0.8;" x="85.68" xlink:href="#m4fcedd1f8f" y="109.210948"/>
      </g>
     </g>
     <g id="text_13">
      <!-- 3.0 -->
      <g style="fill:#777777;" transform="translate(64.367188 112.630245)scale(0.09 -0.09)">
       <defs>
        <path d="M 2597 2516 
Q 3050 2419 3304 2112 
Q 3559 1806 3559 1356 
Q 3559 666 3084 287 
Q 2609 -91 1734 -91 
Q 1441 -91 1130 -33 
Q 819 25 488 141 
L 488 750 
Q 750 597 1062 519 
Q 1375 441 1716 441 
Q 2309 441 2620 675 
Q 2931 909 2931 1356 
Q 2931 1769 2642 2001 
Q 2353 2234 1838 2234 
L 1294 2234 
L 1294 2753 
L 1863 2753 
Q 2328 2753 2575 2939 
Q 2822 3125 2822 3475 
Q 2822 3834 2567 4026 
Q 2313 4219 1838 4219 
Q 1578 4219 1281 4162 
Q 984 4106 628 3988 
L 628 4550 
Q 988 4650 1302 4700 
Q 1616 4750 1894 4750 
Q 2613 4750 3031 4423 
Q 3450 4097 3450 3541 
Q 3450 3153 3228 2886 
Q 3006 2619 2597 2516 
z
" id="DejaVuSans-33" transform="scale(0.015625)"/>
       </defs>
       <use xlink:href="#DejaVuSans-33"/>
       <use x="63.623047" xlink:href="#DejaVuSans-2e"/>
       <use x="95.410156" xlink:href="#DejaVuSans-30"/>
      </g>
     </g>
    </g>
    <g id="ytick_8">
     <g id="line2d_13">
      <g>
       <use style="fill:#cccccc;stroke:#cccccc;stroke-width:0.8;" x="85.68" xlink:href="#m4fcedd1f8f" y="89.140273"/>
      </g>
     </g>
     <g id="text_14">
      <!-- 3.5 -->
      <g style="fill:#777777;" transform="translate(64.367188 92.559569)scale(0.09 -0.09)">
       <use xlink:href="#DejaVuSans-33"/>
       <use x="63.623047" xlink:href="#DejaVuSans-2e"/>
       <use x="95.410156" xlink:href="#DejaVuSans-35"/>
      </g>
     </g>
    </g>
    <g id="ytick_9">
     <g id="line2d_14">
      <g>
       <use style="fill:#cccccc;stroke:#cccccc;stroke-width:0.8;" x="85.68" xlink:href="#m4fcedd1f8f" y="69.069597"/>
      </g>
     </g>
     <g id="text_15">
      <!-- 4.0 -->
      <g style="fill:#777777;" transform="translate(64.367188 72.488894)scale(0.09 -0.09)">
       <defs>
        <path d="M 2419 4116 
L 825 1625 
L 2419 1625 
L 2419 4116 
z
M 2253 4666 
L 3047 4666 
L 3047 1625 
L 3713 1625 
L 3713 1100 
L 3047 1100 
L 3047 0 
L 2419 0 
L 2419 1100 
L 313 1100 
L 313 1709 
L 2253 4666 
z
" id="DejaVuSans-34" transform="scale(0.015625)"/>
       </defs>
       <use xlink:href="#DejaVuSans-34"/>
       <use x="63.623047" xlink:href="#DejaVuSans-2e"/>
       <use x="95.410156" xlink:href="#DejaVuSans-30"/>
      </g>
     </g>
    </g>
    <g id="text_16">
     <!-- Density -->
     <g style="fill:#999999;" transform="translate(58.495469 157.440234)rotate(-90)scale(0.09 -0.09)">
      <defs>
       <path d="M 1259 4147 
L 1259 519 
L 2022 519 
Q 2988 519 3436 956 
Q 3884 1394 3884 2338 
Q 3884 3275 3436 3711 
Q 2988 4147 2022 4147 
L 1259 4147 
z
M 628 4666 
L 1925 4666 
Q 3281 4666 3915 4102 
Q 4550 3538 4550 2338 
Q 4550 1131 3912 565 
Q 3275 0 1925 0 
L 628 0 
L 628 4666 
z
" id="DejaVuSans-44" transform="scale(0.015625)"/>
      </defs>
      <use xlink:href="#DejaVuSans-44"/>
      <use x="77.001953" xlink:href="#DejaVuSans-65"/>
      <use x="138.525391" xlink:href="#DejaVuSans-6e"/>
      <use x="201.904297" xlink:href="#DejaVuSans-73"/>
      <use x="254.003906" xlink:href="#DejaVuSans-69"/>
      <use x="281.787109" xlink:href="#DejaVuSans-74"/>
      <use x="320.996094" xlink:href="#DejaVuSans-79"/>
     </g>
    </g>
   </g>
   <g id="patch_3">
    <path d="M 85.68 229.635 
L 85.68 51.03 
" style="fill:none;stroke:#999999;stroke-linecap:square;stroke-linejoin:miter;stroke-width:0.8;"/>
   </g>
   <g id="patch_4">
    <path d="M 85.68 229.635 
L 504 229.635 
" style="fill:none;stroke:#999999;stroke-linecap:square;stroke-linejoin:miter;stroke-width:0.8;"/>
   </g>
   <g id="text_17">
    <!-- Distribution of Training vs. Re-scaled Similarity (Modeled) Scores -->
    <g transform="translate(85.68 45.03)scale(0.12 -0.12)">
     <defs>
      <path d="M 3116 1747 
Q 3116 2381 2855 2742 
Q 2594 3103 2138 3103 
Q 1681 3103 1420 2742 
Q 1159 2381 1159 1747 
Q 1159 1113 1420 752 
Q 1681 391 2138 391 
Q 2594 391 2855 752 
Q 3116 1113 3116 1747 
z
M 1159 2969 
Q 1341 3281 1617 3432 
Q 1894 3584 2278 3584 
Q 2916 3584 3314 3078 
Q 3713 2572 3713 1747 
Q 3713 922 3314 415 
Q 2916 -91 2278 -91 
Q 1894 -91 1617 61 
Q 1341 213 1159 525 
L 1159 0 
L 581 0 
L 581 4863 
L 1159 4863 
L 1159 2969 
z
" id="DejaVuSans-62" transform="scale(0.015625)"/>
      <path d="M 544 1381 
L 544 3500 
L 1119 3500 
L 1119 1403 
Q 1119 906 1312 657 
Q 1506 409 1894 409 
Q 2359 409 2629 706 
Q 2900 1003 2900 1516 
L 2900 3500 
L 3475 3500 
L 3475 0 
L 2900 0 
L 2900 538 
Q 2691 219 2414 64 
Q 2138 -91 1772 -91 
Q 1169 -91 856 284 
Q 544 659 544 1381 
z
M 1991 3584 
L 1991 3584 
z
" id="DejaVuSans-75" transform="scale(0.015625)"/>
      <path d="M 2375 4863 
L 2375 4384 
L 1825 4384 
Q 1516 4384 1395 4259 
Q 1275 4134 1275 3809 
L 1275 3500 
L 2222 3500 
L 2222 3053 
L 1275 3053 
L 1275 0 
L 697 0 
L 697 3053 
L 147 3053 
L 147 3500 
L 697 3500 
L 697 3744 
Q 697 4328 969 4595 
Q 1241 4863 1831 4863 
L 2375 4863 
z
" id="DejaVuSans-66" transform="scale(0.015625)"/>
      <path d="M 191 3500 
L 800 3500 
L 1894 563 
L 2988 3500 
L 3597 3500 
L 2284 0 
L 1503 0 
L 191 3500 
z
" id="DejaVuSans-76" transform="scale(0.015625)"/>
      <path d="M 313 2009 
L 1997 2009 
L 1997 1497 
L 313 1497 
L 313 2009 
z
" id="DejaVuSans-2d" transform="scale(0.015625)"/>
      <path d="M 1984 4856 
Q 1566 4138 1362 3434 
Q 1159 2731 1159 2009 
Q 1159 1288 1364 580 
Q 1569 -128 1984 -844 
L 1484 -844 
Q 1016 -109 783 600 
Q 550 1309 550 2009 
Q 550 2706 781 3412 
Q 1013 4119 1484 4856 
L 1984 4856 
z
" id="DejaVuSans-28" transform="scale(0.015625)"/>
      <path d="M 513 4856 
L 1013 4856 
Q 1481 4119 1714 3412 
Q 1947 2706 1947 2009 
Q 1947 1309 1714 600 
Q 1481 -109 1013 -844 
L 513 -844 
Q 928 -128 1133 580 
Q 1338 1288 1338 2009 
Q 1338 2731 1133 3434 
Q 928 4138 513 4856 
z
" id="DejaVuSans-29" transform="scale(0.015625)"/>
     </defs>
     <use xlink:href="#DejaVuSans-44"/>
     <use x="77.001953" xlink:href="#DejaVuSans-69"/>
     <use x="104.785156" xlink:href="#DejaVuSans-73"/>
     <use x="156.884766" xlink:href="#DejaVuSans-74"/>
     <use x="196.09375" xlink:href="#DejaVuSans-72"/>
     <use x="237.207031" xlink:href="#DejaVuSans-69"/>
     <use x="264.990234" xlink:href="#DejaVuSans-62"/>
     <use x="328.466797" xlink:href="#DejaVuSans-75"/>
     <use x="391.845703" xlink:href="#DejaVuSans-74"/>
     <use x="431.054688" xlink:href="#DejaVuSans-69"/>
     <use x="458.837891" xlink:href="#DejaVuSans-6f"/>
     <use x="520.019531" xlink:href="#DejaVuSans-6e"/>
     <use x="583.398438" xlink:href="#DejaVuSans-20"/>
     <use x="615.185547" xlink:href="#DejaVuSans-6f"/>
     <use x="676.367188" xlink:href="#DejaVuSans-66"/>
     <use x="711.572266" xlink:href="#DejaVuSans-20"/>
     <use x="743.359375" xlink:href="#DejaVuSans-54"/>
     <use x="789.693359" xlink:href="#DejaVuSans-72"/>
     <use x="830.806641" xlink:href="#DejaVuSans-61"/>
     <use x="892.085938" xlink:href="#DejaVuSans-69"/>
     <use x="919.869141" xlink:href="#DejaVuSans-6e"/>
     <use x="983.248047" xlink:href="#DejaVuSans-69"/>
     <use x="1011.03125" xlink:href="#DejaVuSans-6e"/>
     <use x="1074.410156" xlink:href="#DejaVuSans-67"/>
     <use x="1137.886719" xlink:href="#DejaVuSans-20"/>
     <use x="1169.673828" xlink:href="#DejaVuSans-76"/>
     <use x="1228.853516" xlink:href="#DejaVuSans-73"/>
     <use x="1280.953125" xlink:href="#DejaVuSans-2e"/>
     <use x="1312.740234" xlink:href="#DejaVuSans-20"/>
     <use x="1344.527344" xlink:href="#DejaVuSans-52"/>
     <use x="1409.509766" xlink:href="#DejaVuSans-65"/>
     <use x="1471.033203" xlink:href="#DejaVuSans-2d"/>
     <use x="1507.117188" xlink:href="#DejaVuSans-73"/>
     <use x="1559.216797" xlink:href="#DejaVuSans-63"/>
     <use x="1614.197266" xlink:href="#DejaVuSans-61"/>
     <use x="1675.476562" xlink:href="#DejaVuSans-6c"/>
     <use x="1703.259766" xlink:href="#DejaVuSans-65"/>
     <use x="1764.783203" xlink:href="#DejaVuSans-64"/>
     <use x="1828.259766" xlink:href="#DejaVuSans-20"/>
     <use x="1860.046875" xlink:href="#DejaVuSans-53"/>
     <use x="1923.523438" xlink:href="#DejaVuSans-69"/>
     <use x="1951.306641" xlink:href="#DejaVuSans-6d"/>
     <use x="2048.71875" xlink:href="#DejaVuSans-69"/>
     <use x="2076.501953" xlink:href="#DejaVuSans-6c"/>
     <use x="2104.285156" xlink:href="#DejaVuSans-61"/>
     <use x="2165.564453" xlink:href="#DejaVuSans-72"/>
     <use x="2206.677734" xlink:href="#DejaVuSans-69"/>
     <use x="2234.460938" xlink:href="#DejaVuSans-74"/>
     <use x="2273.669922" xlink:href="#DejaVuSans-79"/>
     <use x="2332.849609" xlink:href="#DejaVuSans-20"/>
     <use x="2364.636719" xlink:href="#DejaVuSans-28"/>
     <use x="2403.650391" xlink:href="#DejaVuSans-4d"/>
     <use x="2489.929688" xlink:href="#DejaVuSans-6f"/>
     <use x="2551.111328" xlink:href="#DejaVuSans-64"/>
     <use x="2614.587891" xlink:href="#DejaVuSans-65"/>
     <use x="2676.111328" xlink:href="#DejaVuSans-6c"/>
     <use x="2703.894531" xlink:href="#DejaVuSans-65"/>
     <use x="2765.417969" xlink:href="#DejaVuSans-64"/>
     <use x="2828.894531" xlink:href="#DejaVuSans-29"/>
     <use x="2867.908203" xlink:href="#DejaVuSans-20"/>
     <use x="2899.695312" xlink:href="#DejaVuSans-53"/>
     <use x="2963.171875" xlink:href="#DejaVuSans-63"/>
     <use x="3018.152344" xlink:href="#DejaVuSans-6f"/>
     <use x="3079.333984" xlink:href="#DejaVuSans-72"/>
     <use x="3118.197266" xlink:href="#DejaVuSans-65"/>
     <use x="3179.720703" xlink:href="#DejaVuSans-73"/>
    </g>
   </g>
  </g>
 </g>
 <defs>
  <clipPath id="p24226060f9">
   <rect height="178.605" width="418.32" x="85.68" y="51.03"/>
  </clipPath>
 </defs>
</svg>
