<?xml version="1.0" encoding="utf-8" standalone="no"?>
<!DOCTYPE svg PUBLIC "-//W3C//DTD SVG 1.1//EN"
  "http://www.w3.org/Graphics/SVG/1.1/DTD/svg11.dtd">
<svg height="348.923077pt" version="1.1" viewBox="0 0 504 348.923077" width="504pt" xmlns="http://www.w3.org/2000/svg" xmlns:xlink="http://www.w3.org/1999/xlink">
 <metadata>
  <rdf:RDF xmlns:cc="http://creativecommons.org/ns#" xmlns:dc="http://purl.org/dc/elements/1.1/" xmlns:rdf="http://www.w3.org/1999/02/22-rdf-syntax-ns#">
   <cc:Work>
    <dc:type rdf:resource="http://purl.org/dc/dcmitype/StillImage"/>
    <dc:date>2022-04-16T19:49:39.898952</dc:date>
    <dc:format>image/svg+xml</dc:format>
    <dc:creator>
     <cc:Agent>
      <dc:title>Matplotlib v3.4.3, https://matplotlib.org/</dc:title>
     </cc:Agent>
    </dc:creator>
   </cc:Work>
  </rdf:RDF>
 </metadata>
 <defs>
  <style type="text/css">*{stroke-linecap:butt;stroke-linejoin:round;}</style>
 </defs>
 <g id="figure_1">
  <g id="patch_1">
   <path d="M 0 348.923077 
L 504 348.923077 
L 504 0 
L 0 0 
z
" style="fill:#ffffff;"/>
  </g>
  <g id="axes_1">
   <g id="patch_2">
    <path d="M 45.56 308.403077 
L 493.2 308.403077 
L 493.2 25.44 
L 45.56 25.44 
z
" style="fill:#ffffff;"/>
   </g>
   <g id="PolyCollection_1">
    <defs>
     <path d="M 68.549352 -42.346547 
L 68.549352 -40.52 
L 70.581027 -40.52 
L 72.612703 -40.52 
L 74.644378 -40.52 
L 76.676053 -40.52 
L 78.707728 -40.52 
L 80.739404 -40.52 
L 82.771079 -40.52 
L 84.802754 -40.52 
L 86.834429 -40.52 
L 88.866105 -40.52 
L 90.89778 -40.52 
L 92.929455 -40.52 
L 94.96113 -40.52 
L 96.992806 -40.52 
L 99.024481 -40.52 
L 101.056156 -40.52 
L 103.087831 -40.52 
L 105.119507 -40.52 
L 107.151182 -40.52 
L 109.182857 -40.52 
L 111.214532 -40.52 
L 113.246208 -40.52 
L 115.277883 -40.52 
L 117.309558 -40.52 
L 119.341233 -40.52 
L 121.372909 -40.52 
L 123.404584 -40.52 
L 125.436259 -40.52 
L 127.467934 -40.52 
L 129.49961 -40.52 
L 131.531285 -40.52 
L 133.56296 -40.52 
L 135.594635 -40.52 
L 137.626311 -40.52 
L 139.657986 -40.52 
L 141.689661 -40.52 
L 143.721336 -40.52 
L 145.753012 -40.52 
L 147.784687 -40.52 
L 149.816362 -40.52 
L 151.848037 -40.52 
L 153.879713 -40.52 
L 155.911388 -40.52 
L 157.943063 -40.52 
L 159.974738 -40.52 
L 162.006414 -40.52 
L 164.038089 -40.52 
L 166.069764 -40.52 
L 168.101439 -40.52 
L 170.133115 -40.52 
L 172.16479 -40.52 
L 174.196465 -40.52 
L 176.22814 -40.52 
L 178.259816 -40.52 
L 180.291491 -40.52 
L 182.323166 -40.52 
L 184.354841 -40.52 
L 186.386517 -40.52 
L 188.418192 -40.52 
L 190.449867 -40.52 
L 192.481542 -40.52 
L 194.513218 -40.52 
L 196.544893 -40.52 
L 198.576568 -40.52 
L 200.608243 -40.52 
L 202.639919 -40.52 
L 204.671594 -40.52 
L 206.703269 -40.52 
L 208.734944 -40.52 
L 210.76662 -40.52 
L 212.798295 -40.52 
L 214.82997 -40.52 
L 216.861645 -40.52 
L 218.893321 -40.52 
L 220.924996 -40.52 
L 222.956671 -40.52 
L 224.988347 -40.52 
L 227.020022 -40.52 
L 229.051697 -40.52 
L 231.083372 -40.52 
L 233.115048 -40.52 
L 235.146723 -40.52 
L 237.178398 -40.52 
L 239.210073 -40.52 
L 241.241749 -40.52 
L 243.273424 -40.52 
L 245.305099 -40.52 
L 247.336774 -40.52 
L 249.36845 -40.52 
L 251.400125 -40.52 
L 253.4318 -40.52 
L 255.463475 -40.52 
L 257.495151 -40.52 
L 259.526826 -40.52 
L 261.558501 -40.52 
L 263.590176 -40.52 
L 265.621852 -40.52 
L 267.653527 -40.52 
L 269.685202 -40.52 
L 271.716877 -40.52 
L 273.748553 -40.52 
L 275.780228 -40.52 
L 277.811903 -40.52 
L 279.843578 -40.52 
L 281.875254 -40.52 
L 283.906929 -40.52 
L 285.938604 -40.52 
L 287.970279 -40.52 
L 290.001955 -40.52 
L 292.03363 -40.52 
L 294.065305 -40.52 
L 296.09698 -40.52 
L 298.128656 -40.52 
L 300.160331 -40.52 
L 302.192006 -40.52 
L 304.223681 -40.52 
L 306.255357 -40.52 
L 308.287032 -40.52 
L 310.318707 -40.52 
L 312.350382 -40.52 
L 314.382058 -40.52 
L 316.413733 -40.52 
L 318.445408 -40.52 
L 320.477083 -40.52 
L 322.508759 -40.52 
L 324.540434 -40.52 
L 326.572109 -40.52 
L 328.603784 -40.52 
L 330.63546 -40.52 
L 332.667135 -40.52 
L 334.69881 -40.52 
L 336.730485 -40.52 
L 338.762161 -40.52 
L 340.793836 -40.52 
L 342.825511 -40.52 
L 344.857186 -40.52 
L 346.888862 -40.52 
L 348.920537 -40.52 
L 350.952212 -40.52 
L 352.983887 -40.52 
L 355.015563 -40.52 
L 357.047238 -40.52 
L 359.078913 -40.52 
L 361.110588 -40.52 
L 363.142264 -40.52 
L 365.173939 -40.52 
L 367.205614 -40.52 
L 369.237289 -40.52 
L 371.268965 -40.52 
L 373.30064 -40.52 
L 375.332315 -40.52 
L 377.36399 -40.52 
L 379.395666 -40.52 
L 381.427341 -40.52 
L 383.459016 -40.52 
L 385.490691 -40.52 
L 387.522367 -40.52 
L 389.554042 -40.52 
L 391.585717 -40.52 
L 393.617392 -40.52 
L 395.649068 -40.52 
L 397.680743 -40.52 
L 399.712418 -40.52 
L 401.744093 -40.52 
L 403.775769 -40.52 
L 405.807444 -40.52 
L 407.839119 -40.52 
L 409.870794 -40.52 
L 411.90247 -40.52 
L 413.934145 -40.52 
L 415.96582 -40.52 
L 417.997495 -40.52 
L 420.029171 -40.52 
L 422.060846 -40.52 
L 424.092521 -40.52 
L 426.124196 -40.52 
L 428.155872 -40.52 
L 430.187547 -40.52 
L 432.219222 -40.52 
L 434.250897 -40.52 
L 436.282573 -40.52 
L 438.314248 -40.52 
L 440.345923 -40.52 
L 442.377598 -40.52 
L 444.409274 -40.52 
L 446.440949 -40.52 
L 448.472624 -40.52 
L 450.504299 -40.52 
L 452.535975 -40.52 
L 454.56765 -40.52 
L 456.599325 -40.52 
L 458.631001 -40.52 
L 460.662676 -40.52 
L 462.694351 -40.52 
L 464.726026 -40.52 
L 466.757702 -40.52 
L 468.789377 -40.52 
L 470.821052 -40.52 
L 472.852727 -40.52 
L 472.852727 -40.802136 
L 472.852727 -40.802136 
L 470.821052 -41.008779 
L 468.789377 -41.337018 
L 466.757702 -41.837693 
L 464.726026 -42.570508 
L 462.694351 -43.598739 
L 460.662676 -44.980139 
L 458.631001 -46.754307 
L 456.599325 -48.927988 
L 454.56765 -51.46108 
L 452.535975 -54.257019 
L 450.504299 -57.161367 
L 448.472624 -59.971347 
L 446.440949 -62.456865 
L 444.409274 -64.390615 
L 442.377598 -65.582066 
L 440.345923 -65.90834 
L 438.314248 -65.335095 
L 436.282573 -63.922473 
L 434.250897 -61.814712 
L 432.219222 -59.215883 
L 430.187547 -56.357417 
L 428.155872 -53.464549 
L 426.124196 -50.728307 
L 424.092521 -48.287561 
L 422.060846 -46.222691 
L 420.029171 -44.559609 
L 417.997495 -43.280981 
L 415.96582 -42.340763 
L 413.934145 -41.678553 
L 411.90247 -41.231343 
L 409.870794 -40.941569 
L 407.839119 -40.761461 
L 405.807444 -40.65443 
L 403.775769 -40.594558 
L 401.744093 -40.565221 
L 399.712418 -40.557755 
L 397.680743 -40.570803 
L 395.649068 -40.610857 
L 393.617392 -40.694343 
L 391.585717 -40.851466 
L 389.554042 -41.131768 
L 387.522367 -41.610928 
L 385.490691 -42.397601 
L 383.459016 -43.638206 
L 381.427341 -45.516628 
L 379.395666 -48.245295 
L 377.36399 -52.044381 
L 375.332315 -57.107633 
L 373.30064 -63.556443 
L 371.268965 -71.388152 
L 369.237289 -80.428925 
L 367.205614 -90.304438 
L 365.173939 -100.441321 
L 363.142264 -110.107838 
L 361.110588 -118.493943 
L 359.078913 -124.82044 
L 357.047238 -128.457552 
L 355.015563 -129.028115 
L 352.983887 -126.472003 
L 350.952212 -121.056565 
L 348.920537 -113.330563 
L 346.888862 -104.032597 
L 344.857186 -93.975148 
L 342.825511 -83.929361 
L 340.793836 -74.532726 
L 338.762161 -66.233648 
L 336.730485 -59.276428 
L 334.69881 -53.720819 
L 332.667135 -49.484298 
L 330.63546 -46.393514 
L 328.603784 -44.233242 
L 326.572109 -42.785241 
L 324.540434 -41.853908 
L 322.508759 -41.279331 
L 320.477083 -40.940603 
L 318.445408 -40.753127 
L 316.413733 -40.663448 
L 314.382058 -40.6445 
L 312.350382 -40.693371 
L 310.318707 -40.833091 
L 308.287032 -41.119471 
L 306.255357 -41.653515 
L 304.223681 -42.599047 
L 302.192006 -44.203721 
L 300.160331 -46.819268 
L 298.128656 -50.914028 
L 296.09698 -57.068085 
L 294.065305 -65.94009 
L 292.03363 -78.196531 
L 290.001955 -94.400175 
L 287.970279 -114.864919 
L 285.938604 -139.497795 
L 283.906929 -167.661827 
L 281.875254 -198.100804 
L 279.843578 -228.964022 
L 277.811903 -257.953074 
L 275.780228 -282.585579 
L 273.748553 -300.538746 
L 271.716877 -310.008645 
L 269.685202 -310.008645 
L 267.653527 -300.538746 
L 265.621852 -282.585579 
L 263.590176 -257.953074 
L 261.558501 -228.964022 
L 259.526826 -198.100804 
L 257.495151 -167.661827 
L 255.463475 -139.497795 
L 253.4318 -114.864919 
L 251.400125 -94.400177 
L 249.36845 -78.196535 
L 247.336774 -65.940102 
L 245.305099 -57.068119 
L 243.273424 -50.914125 
L 241.241749 -46.819531 
L 239.210073 -44.204407 
L 237.178398 -42.600774 
L 235.146723 -41.657712 
L 233.115048 -41.129311 
L 231.083372 -40.85535 
L 229.051697 -40.741954 
L 227.020022 -40.746811 
L 224.988347 -40.871336 
L 222.956671 -41.160696 
L 220.924996 -41.711572 
L 218.893321 -42.68647 
L 216.861645 -44.331907 
L 214.82997 -46.995702 
L 212.798295 -51.135993 
L 210.76662 -57.312418 
L 208.734944 -66.149097 
L 206.703269 -78.261425 
L 204.671594 -94.14504 
L 202.639919 -114.035885 
L 200.608243 -137.763135 
L 198.576568 -164.628323 
L 196.544893 -193.349449 
L 194.513218 -222.103917 
L 192.481542 -248.687009 
L 190.449867 -270.775818 
L 188.418192 -286.258676 
L 186.386517 -293.566656 
L 184.354841 -291.935404 
L 182.323166 -281.536819 
L 180.291491 -263.449226 
L 178.259816 -239.473167 
L 176.22814 -211.836382 
L 174.196465 -182.854808 
L 172.16479 -154.620497 
L 170.133115 -128.772728 
L 168.101439 -106.3817 
L 166.069764 -87.94441 
L 164.038089 -73.468463 
L 162.006414 -62.606797 
L 159.974738 -54.805494 
L 157.943063 -49.435083 
L 155.911388 -45.888278 
L 153.879713 -43.63944 
L 151.848037 -42.270192 
L 149.816362 -41.470403 
L 147.784687 -41.02482 
L 145.753012 -40.794075 
L 143.721336 -40.696288 
L 141.689661 -40.692892 
L 139.657986 -40.780408 
L 137.626311 -40.988568 
L 135.594635 -41.384358 
L 133.56296 -42.080802 
L 131.531285 -43.248292 
L 129.49961 -45.124877 
L 127.467934 -48.020344 
L 125.436259 -52.30758 
L 123.404584 -58.394582 
L 121.372909 -66.672435 
L 119.341233 -77.43924 
L 117.309558 -90.807216 
L 115.277883 -106.608612 
L 113.246208 -124.323058 
L 111.214532 -143.051494 
L 109.182857 -161.557208 
L 107.151182 -178.38204 
L 105.119507 -192.027695 
L 103.087831 -201.173011 
L 101.056156 -204.884203 
L 99.024481 -202.771902 
L 96.992806 -195.058447 
L 94.96113 -182.539337 
L 92.929455 -166.448088 
L 90.89778 -148.256267 
L 88.866105 -129.453509 
L 86.834429 -111.35259 
L 84.802754 -94.953343 
L 82.771079 -80.880922 
L 80.739404 -69.394957 
L 78.707728 -60.451767 
L 76.676053 -53.794997 
L 74.644378 -49.050751 
L 72.612703 -45.809374 
L 70.581027 -43.684357 
L 68.549352 -42.346547 
z
" id="m73d3cf6420" style="stroke:#0070c0;"/>
    </defs>
    <g clip-path="url(#pb1d7272eca)">
     <use style="fill:#0070c0;fill-opacity:0.25;stroke:#0070c0;" x="0" xlink:href="#m73d3cf6420" y="348.923077"/>
    </g>
   </g>
   <g id="PolyCollection_2">
    <defs>
     <path d="M 65.907273 -42.580522 
L 65.907273 -40.52 
L 67.538552 -40.52 
L 69.16983 -40.52 
L 70.801109 -40.52 
L 72.432388 -40.52 
L 74.063667 -40.52 
L 75.694945 -40.52 
L 77.326224 -40.52 
L 78.957503 -40.52 
L 80.588782 -40.52 
L 82.220061 -40.52 
L 83.851339 -40.52 
L 85.482618 -40.52 
L 87.113897 -40.52 
L 88.745176 -40.52 
L 90.376455 -40.52 
L 92.007733 -40.52 
L 93.639012 -40.52 
L 95.270291 -40.52 
L 96.90157 -40.52 
L 98.532849 -40.52 
L 100.164127 -40.52 
L 101.795406 -40.52 
L 103.426685 -40.52 
L 105.057964 -40.52 
L 106.689243 -40.52 
L 108.320521 -40.52 
L 109.9518 -40.52 
L 111.583079 -40.52 
L 113.214358 -40.52 
L 114.845637 -40.52 
L 116.476915 -40.52 
L 118.108194 -40.52 
L 119.739473 -40.52 
L 121.370752 -40.52 
L 123.002031 -40.52 
L 124.633309 -40.52 
L 126.264588 -40.52 
L 127.895867 -40.52 
L 129.527146 -40.52 
L 131.158425 -40.52 
L 132.789703 -40.52 
L 134.420982 -40.52 
L 136.052261 -40.52 
L 137.68354 -40.52 
L 139.314818 -40.52 
L 140.946097 -40.52 
L 142.577376 -40.52 
L 144.208655 -40.52 
L 145.839934 -40.52 
L 147.471212 -40.52 
L 149.102491 -40.52 
L 150.73377 -40.52 
L 152.365049 -40.52 
L 153.996328 -40.52 
L 155.627606 -40.52 
L 157.258885 -40.52 
L 158.890164 -40.52 
L 160.521443 -40.52 
L 162.152722 -40.52 
L 163.784 -40.52 
L 165.415279 -40.52 
L 167.046558 -40.52 
L 168.677837 -40.52 
L 170.309116 -40.52 
L 171.940394 -40.52 
L 173.571673 -40.52 
L 175.202952 -40.52 
L 176.834231 -40.52 
L 178.46551 -40.52 
L 180.096788 -40.52 
L 181.728067 -40.52 
L 183.359346 -40.52 
L 184.990625 -40.52 
L 186.621904 -40.52 
L 188.253182 -40.52 
L 189.884461 -40.52 
L 191.51574 -40.52 
L 193.147019 -40.52 
L 194.778297 -40.52 
L 196.409576 -40.52 
L 198.040855 -40.52 
L 199.672134 -40.52 
L 201.303413 -40.52 
L 202.934691 -40.52 
L 204.56597 -40.52 
L 206.197249 -40.52 
L 207.828528 -40.52 
L 209.459807 -40.52 
L 211.091085 -40.52 
L 212.722364 -40.52 
L 214.353643 -40.52 
L 215.984922 -40.52 
L 217.616201 -40.52 
L 219.247479 -40.52 
L 220.878758 -40.52 
L 222.510037 -40.52 
L 224.141316 -40.52 
L 225.772595 -40.52 
L 227.403873 -40.52 
L 229.035152 -40.52 
L 230.666431 -40.52 
L 232.29771 -40.52 
L 233.928989 -40.52 
L 235.560267 -40.52 
L 237.191546 -40.52 
L 238.822825 -40.52 
L 240.454104 -40.52 
L 242.085383 -40.52 
L 243.716661 -40.52 
L 245.34794 -40.52 
L 246.979219 -40.52 
L 248.610498 -40.52 
L 250.241776 -40.52 
L 251.873055 -40.52 
L 253.504334 -40.52 
L 255.135613 -40.52 
L 256.766892 -40.52 
L 258.39817 -40.52 
L 260.029449 -40.52 
L 261.660728 -40.52 
L 263.292007 -40.52 
L 264.923286 -40.52 
L 266.554564 -40.52 
L 268.185843 -40.52 
L 269.817122 -40.52 
L 271.448401 -40.52 
L 273.07968 -40.52 
L 274.710958 -40.52 
L 276.342237 -40.52 
L 277.973516 -40.52 
L 279.604795 -40.52 
L 281.236074 -40.52 
L 282.867352 -40.52 
L 284.498631 -40.52 
L 286.12991 -40.52 
L 287.761189 -40.52 
L 289.392468 -40.52 
L 291.023746 -40.52 
L 292.655025 -40.52 
L 294.286304 -40.52 
L 295.917583 -40.52 
L 297.548862 -40.52 
L 299.18014 -40.52 
L 300.811419 -40.52 
L 302.442698 -40.52 
L 304.073977 -40.52 
L 305.705256 -40.52 
L 307.336534 -40.52 
L 308.967813 -40.52 
L 310.599092 -40.52 
L 312.230371 -40.52 
L 313.861649 -40.52 
L 315.492928 -40.52 
L 317.124207 -40.52 
L 318.755486 -40.52 
L 320.386765 -40.52 
L 322.018043 -40.52 
L 323.649322 -40.52 
L 325.280601 -40.52 
L 326.91188 -40.52 
L 328.543159 -40.52 
L 330.174437 -40.52 
L 331.805716 -40.52 
L 333.436995 -40.52 
L 335.068274 -40.52 
L 336.699553 -40.52 
L 338.330831 -40.52 
L 339.96211 -40.52 
L 341.593389 -40.52 
L 343.224668 -40.52 
L 344.855947 -40.52 
L 346.487225 -40.52 
L 348.118504 -40.52 
L 349.749783 -40.52 
L 351.381062 -40.52 
L 353.012341 -40.52 
L 354.643619 -40.52 
L 356.274898 -40.52 
L 357.906177 -40.52 
L 359.537456 -40.52 
L 361.168735 -40.52 
L 362.800013 -40.52 
L 364.431292 -40.52 
L 366.062571 -40.52 
L 367.69385 -40.52 
L 369.325128 -40.52 
L 370.956407 -40.52 
L 372.587686 -40.52 
L 374.218965 -40.52 
L 375.850244 -40.52 
L 377.481522 -40.52 
L 379.112801 -40.52 
L 380.74408 -40.52 
L 382.375359 -40.52 
L 384.006638 -40.52 
L 385.637916 -40.52 
L 387.269195 -40.52 
L 388.900474 -40.52 
L 390.531753 -40.52 
L 390.531753 -42.580296 
L 390.531753 -42.580296 
L 388.900474 -43.628263 
L 387.269195 -45.117803 
L 385.637916 -47.188493 
L 384.006638 -50.003086 
L 382.375359 -53.742583 
L 380.74408 -58.597051 
L 379.112801 -64.751679 
L 377.481522 -72.368141 
L 375.850244 -81.562077 
L 374.218965 -92.378413 
L 372.587686 -104.767135 
L 370.956407 -118.562821 
L 369.325128 -133.471588 
L 367.69385 -149.068873 
L 366.062571 -164.810654 
L 364.431292 -180.059218 
L 362.800013 -194.122665 
L 361.168735 -206.305242 
L 359.537456 -215.963644 
L 357.906177 -222.563033 
L 356.274898 -225.726038 
L 354.643619 -225.268479 
L 353.012341 -221.217131 
L 351.381062 -213.807124 
L 349.749783 -203.459352 
L 348.118504 -190.740889 
L 346.487225 -176.313608 
L 344.855947 -160.87745 
L 343.224668 -145.115086 
L 341.593389 -129.643913 
L 339.96211 -114.979801 
L 338.330831 -101.514991 
L 336.699553 -89.510423 
L 335.068274 -79.100962 
L 333.436995 -70.310658 
L 331.805716 -63.074503 
L 330.174437 -57.263072 
L 328.543159 -52.706895 
L 326.91188 -49.218161 
L 325.280601 -46.608286 
L 323.649322 -44.700751 
L 322.018043 -43.339328 
L 320.386765 -42.392352 
L 318.755486 -41.753954 
L 317.124207 -41.343288 
L 315.492928 -41.102709 
L 313.861649 -40.995716 
L 312.230371 -41.005277 
L 310.599092 -41.132936 
L 308.967813 -41.398898 
L 307.336534 -41.843071 
L 305.705256 -42.526838 
L 304.073977 -43.535125 
L 302.442698 -44.978107 
L 300.811419 -46.991719 
L 299.18014 -49.735979 
L 297.548862 -53.39012 
L 295.917583 -58.143619 
L 294.286304 -64.182567 
L 292.655025 -71.671337 
L 291.023746 -80.73031 
L 289.392468 -91.411265 
L 287.761189 -103.672985 
L 286.12991 -117.360331 
L 284.498631 -132.190425 
L 282.867352 -147.749412 
L 281.236074 -163.502484 
L 279.604795 -178.818431 
L 277.973516 -193.00808 
L 276.342237 -205.373887 
L 274.710958 -215.26596 
L 273.07968 -222.138359 
L 271.448401 -225.59894 
L 269.817122 -225.446399 
L 268.185843 -221.689663 
L 266.554564 -214.547024 
L 264.923286 -204.425137 
L 263.292007 -191.880686 
L 261.660728 -177.569756 
L 260.029449 -162.191285 
L 258.39817 -146.431369 
L 256.766892 -130.914441 
L 255.135613 -116.165923 
L 253.504334 -102.588893 
L 251.873055 -90.455246 
L 250.241776 -79.90993 
L 248.610498 -70.985504 
L 246.979219 -63.623486 
L 245.34794 -57.698889 
L 243.716661 -53.044711 
L 242.085383 -49.47394 
L 240.454104 -46.797498 
L 238.822825 -44.83748 
L 237.191546 -43.435747 
L 235.560267 -42.458494 
L 233.928989 -41.797701 
L 232.29771 -41.370489 
L 230.666431 -41.117352 
L 229.035152 -41.000091 
L 227.403873 -41.000091 
L 225.772595 -41.117352 
L 224.141316 -41.370489 
L 222.510037 -41.797701 
L 220.878758 -42.458494 
L 219.247479 -43.435747 
L 217.616201 -44.83748 
L 215.984922 -46.797498 
L 214.353643 -49.47394 
L 212.722364 -53.044711 
L 211.091085 -57.698889 
L 209.459807 -63.623486 
L 207.828528 -70.985504 
L 206.197249 -79.90993 
L 204.56597 -90.455246 
L 202.934691 -102.588893 
L 201.303413 -116.165923 
L 199.672134 -130.914441 
L 198.040855 -146.431369 
L 196.409576 -162.191285 
L 194.778297 -177.569756 
L 193.147019 -191.880686 
L 191.51574 -204.425137 
L 189.884461 -214.547024 
L 188.253182 -221.689663 
L 186.621904 -225.446399 
L 184.990625 -225.59894 
L 183.359346 -222.138359 
L 181.728067 -215.26596 
L 180.096788 -205.373887 
L 178.46551 -193.00808 
L 176.834231 -178.818431 
L 175.202952 -163.502484 
L 173.571673 -147.749412 
L 171.940394 -132.190425 
L 170.309116 -117.360331 
L 168.677837 -103.672985 
L 167.046558 -91.411265 
L 165.415279 -80.73031 
L 163.784 -71.671337 
L 162.152722 -64.182567 
L 160.521443 -58.143619 
L 158.890164 -53.39012 
L 157.258885 -49.735979 
L 155.627606 -46.991719 
L 153.996328 -44.978108 
L 152.365049 -43.535126 
L 150.73377 -42.52684 
L 149.102491 -41.843075 
L 147.471212 -41.398905 
L 145.839934 -41.132947 
L 144.208655 -41.005296 
L 142.577376 -40.995748 
L 140.946097 -41.102761 
L 139.314818 -41.343371 
L 137.68354 -41.754085 
L 136.052261 -42.392555 
L 134.420982 -43.339636 
L 132.789703 -44.701208 
L 131.158425 -46.608953 
L 129.527146 -49.219115 
L 127.895867 -52.708232 
L 126.264588 -57.264908 
L 124.633309 -63.076976 
L 123.002031 -70.313925 
L 121.370752 -79.105194 
L 119.739473 -89.515796 
L 118.108194 -101.52168 
L 116.476915 -114.987967 
L 114.845637 -129.653687 
L 113.214358 -145.126558 
L 111.583079 -160.89065 
L 109.9518 -176.3285 
L 108.320521 -190.757364 
L 106.689243 -203.477222 
L 105.057964 -213.826129 
L 103.426685 -221.236948 
L 101.795406 -225.288741 
L 100.164127 -225.74635 
L 98.532849 -222.582999 
L 96.90157 -215.982885 
L 95.270291 -206.323424 
L 93.639012 -194.139511 
L 92.007733 -180.074522 
L 90.376455 -164.824286 
L 88.745176 -149.080777 
L 87.113897 -133.481782 
L 85.482618 -118.57138 
L 83.851339 -104.774181 
L 82.220061 -92.3841 
L 80.588782 -81.566578 
L 78.957503 -72.371634 
L 77.326224 -64.754336 
L 75.694945 -58.599033 
L 74.063667 -53.744033 
L 72.432388 -50.004126 
L 70.801109 -47.189224 
L 69.16983 -45.118307 
L 67.538552 -43.628604 
L 65.907273 -42.580522 
z
" id="m5692b94a02" style="stroke:#ffa500;"/>
    </defs>
    <g clip-path="url(#pb1d7272eca)">
     <use style="fill:#ffa500;fill-opacity:0.25;stroke:#ffa500;" x="0" xlink:href="#m5692b94a02" y="348.923077"/>
    </g>
   </g>
   <g id="matplotlib.axis_1">
    <g id="xtick_1">
     <g id="line2d_1">
      <defs>
       <path d="M 0 0 
L 0 3.5 
" id="m9362fb2ecd" style="stroke:#cccccc;stroke-width:0.8;"/>
      </defs>
      <g>
       <use style="fill:#cccccc;stroke:#cccccc;stroke-width:0.8;" x="100.774932" xlink:href="#m9362fb2ecd" y="308.403077"/>
      </g>
     </g>
     <g id="text_1">
      <!-- Unrelated -->
      <g style="fill:#777777;" transform="translate(78.714385 322.241671)scale(0.09 -0.09)">
       <defs>
        <path d="M 556 4666 
L 1191 4666 
L 1191 1831 
Q 1191 1081 1462 751 
Q 1734 422 2344 422 
Q 2950 422 3222 751 
Q 3494 1081 3494 1831 
L 3494 4666 
L 4128 4666 
L 4128 1753 
Q 4128 841 3676 375 
Q 3225 -91 2344 -91 
Q 1459 -91 1007 375 
Q 556 841 556 1753 
L 556 4666 
z
" id="DejaVuSans-55" transform="scale(0.015625)"/>
        <path d="M 3513 2113 
L 3513 0 
L 2938 0 
L 2938 2094 
Q 2938 2591 2744 2837 
Q 2550 3084 2163 3084 
Q 1697 3084 1428 2787 
Q 1159 2491 1159 1978 
L 1159 0 
L 581 0 
L 581 3500 
L 1159 3500 
L 1159 2956 
Q 1366 3272 1645 3428 
Q 1925 3584 2291 3584 
Q 2894 3584 3203 3211 
Q 3513 2838 3513 2113 
z
" id="DejaVuSans-6e" transform="scale(0.015625)"/>
        <path d="M 2631 2963 
Q 2534 3019 2420 3045 
Q 2306 3072 2169 3072 
Q 1681 3072 1420 2755 
Q 1159 2438 1159 1844 
L 1159 0 
L 581 0 
L 581 3500 
L 1159 3500 
L 1159 2956 
Q 1341 3275 1631 3429 
Q 1922 3584 2338 3584 
Q 2397 3584 2469 3576 
Q 2541 3569 2628 3553 
L 2631 2963 
z
" id="DejaVuSans-72" transform="scale(0.015625)"/>
        <path d="M 3597 1894 
L 3597 1613 
L 953 1613 
Q 991 1019 1311 708 
Q 1631 397 2203 397 
Q 2534 397 2845 478 
Q 3156 559 3463 722 
L 3463 178 
Q 3153 47 2828 -22 
Q 2503 -91 2169 -91 
Q 1331 -91 842 396 
Q 353 884 353 1716 
Q 353 2575 817 3079 
Q 1281 3584 2069 3584 
Q 2775 3584 3186 3129 
Q 3597 2675 3597 1894 
z
M 3022 2063 
Q 3016 2534 2758 2815 
Q 2500 3097 2075 3097 
Q 1594 3097 1305 2825 
Q 1016 2553 972 2059 
L 3022 2063 
z
" id="DejaVuSans-65" transform="scale(0.015625)"/>
        <path d="M 603 4863 
L 1178 4863 
L 1178 0 
L 603 0 
L 603 4863 
z
" id="DejaVuSans-6c" transform="scale(0.015625)"/>
        <path d="M 2194 1759 
Q 1497 1759 1228 1600 
Q 959 1441 959 1056 
Q 959 750 1161 570 
Q 1363 391 1709 391 
Q 2188 391 2477 730 
Q 2766 1069 2766 1631 
L 2766 1759 
L 2194 1759 
z
M 3341 1997 
L 3341 0 
L 2766 0 
L 2766 531 
Q 2569 213 2275 61 
Q 1981 -91 1556 -91 
Q 1019 -91 701 211 
Q 384 513 384 1019 
Q 384 1609 779 1909 
Q 1175 2209 1959 2209 
L 2766 2209 
L 2766 2266 
Q 2766 2663 2505 2880 
Q 2244 3097 1772 3097 
Q 1472 3097 1187 3025 
Q 903 2953 641 2809 
L 641 3341 
Q 956 3463 1253 3523 
Q 1550 3584 1831 3584 
Q 2591 3584 2966 3190 
Q 3341 2797 3341 1997 
z
" id="DejaVuSans-61" transform="scale(0.015625)"/>
        <path d="M 1172 4494 
L 1172 3500 
L 2356 3500 
L 2356 3053 
L 1172 3053 
L 1172 1153 
Q 1172 725 1289 603 
Q 1406 481 1766 481 
L 2356 481 
L 2356 0 
L 1766 0 
Q 1100 0 847 248 
Q 594 497 594 1153 
L 594 3053 
L 172 3053 
L 172 3500 
L 594 3500 
L 594 4494 
L 1172 4494 
z
" id="DejaVuSans-74" transform="scale(0.015625)"/>
        <path d="M 2906 2969 
L 2906 4863 
L 3481 4863 
L 3481 0 
L 2906 0 
L 2906 525 
Q 2725 213 2448 61 
Q 2172 -91 1784 -91 
Q 1150 -91 751 415 
Q 353 922 353 1747 
Q 353 2572 751 3078 
Q 1150 3584 1784 3584 
Q 2172 3584 2448 3432 
Q 2725 3281 2906 2969 
z
M 947 1747 
Q 947 1113 1208 752 
Q 1469 391 1925 391 
Q 2381 391 2643 752 
Q 2906 1113 2906 1747 
Q 2906 2381 2643 2742 
Q 2381 3103 1925 3103 
Q 1469 3103 1208 2742 
Q 947 2381 947 1747 
z
" id="DejaVuSans-64" transform="scale(0.015625)"/>
       </defs>
       <use xlink:href="#DejaVuSans-55"/>
       <use x="73.193359" xlink:href="#DejaVuSans-6e"/>
       <use x="136.572266" xlink:href="#DejaVuSans-72"/>
       <use x="175.435547" xlink:href="#DejaVuSans-65"/>
       <use x="236.958984" xlink:href="#DejaVuSans-6c"/>
       <use x="264.742188" xlink:href="#DejaVuSans-61"/>
       <use x="326.021484" xlink:href="#DejaVuSans-74"/>
       <use x="365.230469" xlink:href="#DejaVuSans-65"/>
       <use x="426.753906" xlink:href="#DejaVuSans-64"/>
      </g>
     </g>
    </g>
    <g id="xtick_2">
     <g id="line2d_2">
      <g>
       <use style="fill:#cccccc;stroke:#cccccc;stroke-width:0.8;" x="185.737986" xlink:href="#m9362fb2ecd" y="308.403077"/>
      </g>
     </g>
     <g id="text_2">
      <!-- Somewhat Related -->
      <g style="fill:#777777;" transform="translate(143.40072 322.241671)scale(0.09 -0.09)">
       <defs>
        <path d="M 3425 4513 
L 3425 3897 
Q 3066 4069 2747 4153 
Q 2428 4238 2131 4238 
Q 1616 4238 1336 4038 
Q 1056 3838 1056 3469 
Q 1056 3159 1242 3001 
Q 1428 2844 1947 2747 
L 2328 2669 
Q 3034 2534 3370 2195 
Q 3706 1856 3706 1288 
Q 3706 609 3251 259 
Q 2797 -91 1919 -91 
Q 1588 -91 1214 -16 
Q 841 59 441 206 
L 441 856 
Q 825 641 1194 531 
Q 1563 422 1919 422 
Q 2459 422 2753 634 
Q 3047 847 3047 1241 
Q 3047 1584 2836 1778 
Q 2625 1972 2144 2069 
L 1759 2144 
Q 1053 2284 737 2584 
Q 422 2884 422 3419 
Q 422 4038 858 4394 
Q 1294 4750 2059 4750 
Q 2388 4750 2728 4690 
Q 3069 4631 3425 4513 
z
" id="DejaVuSans-53" transform="scale(0.015625)"/>
        <path d="M 1959 3097 
Q 1497 3097 1228 2736 
Q 959 2375 959 1747 
Q 959 1119 1226 758 
Q 1494 397 1959 397 
Q 2419 397 2687 759 
Q 2956 1122 2956 1747 
Q 2956 2369 2687 2733 
Q 2419 3097 1959 3097 
z
M 1959 3584 
Q 2709 3584 3137 3096 
Q 3566 2609 3566 1747 
Q 3566 888 3137 398 
Q 2709 -91 1959 -91 
Q 1206 -91 779 398 
Q 353 888 353 1747 
Q 353 2609 779 3096 
Q 1206 3584 1959 3584 
z
" id="DejaVuSans-6f" transform="scale(0.015625)"/>
        <path d="M 3328 2828 
Q 3544 3216 3844 3400 
Q 4144 3584 4550 3584 
Q 5097 3584 5394 3201 
Q 5691 2819 5691 2113 
L 5691 0 
L 5113 0 
L 5113 2094 
Q 5113 2597 4934 2840 
Q 4756 3084 4391 3084 
Q 3944 3084 3684 2787 
Q 3425 2491 3425 1978 
L 3425 0 
L 2847 0 
L 2847 2094 
Q 2847 2600 2669 2842 
Q 2491 3084 2119 3084 
Q 1678 3084 1418 2786 
Q 1159 2488 1159 1978 
L 1159 0 
L 581 0 
L 581 3500 
L 1159 3500 
L 1159 2956 
Q 1356 3278 1631 3431 
Q 1906 3584 2284 3584 
Q 2666 3584 2933 3390 
Q 3200 3197 3328 2828 
z
" id="DejaVuSans-6d" transform="scale(0.015625)"/>
        <path d="M 269 3500 
L 844 3500 
L 1563 769 
L 2278 3500 
L 2956 3500 
L 3675 769 
L 4391 3500 
L 4966 3500 
L 4050 0 
L 3372 0 
L 2619 2869 
L 1863 0 
L 1184 0 
L 269 3500 
z
" id="DejaVuSans-77" transform="scale(0.015625)"/>
        <path d="M 3513 2113 
L 3513 0 
L 2938 0 
L 2938 2094 
Q 2938 2591 2744 2837 
Q 2550 3084 2163 3084 
Q 1697 3084 1428 2787 
Q 1159 2491 1159 1978 
L 1159 0 
L 581 0 
L 581 4863 
L 1159 4863 
L 1159 2956 
Q 1366 3272 1645 3428 
Q 1925 3584 2291 3584 
Q 2894 3584 3203 3211 
Q 3513 2838 3513 2113 
z
" id="DejaVuSans-68" transform="scale(0.015625)"/>
        <path id="DejaVuSans-20" transform="scale(0.015625)"/>
        <path d="M 2841 2188 
Q 3044 2119 3236 1894 
Q 3428 1669 3622 1275 
L 4263 0 
L 3584 0 
L 2988 1197 
Q 2756 1666 2539 1819 
Q 2322 1972 1947 1972 
L 1259 1972 
L 1259 0 
L 628 0 
L 628 4666 
L 2053 4666 
Q 2853 4666 3247 4331 
Q 3641 3997 3641 3322 
Q 3641 2881 3436 2590 
Q 3231 2300 2841 2188 
z
M 1259 4147 
L 1259 2491 
L 2053 2491 
Q 2509 2491 2742 2702 
Q 2975 2913 2975 3322 
Q 2975 3731 2742 3939 
Q 2509 4147 2053 4147 
L 1259 4147 
z
" id="DejaVuSans-52" transform="scale(0.015625)"/>
       </defs>
       <use xlink:href="#DejaVuSans-53"/>
       <use x="63.476562" xlink:href="#DejaVuSans-6f"/>
       <use x="124.658203" xlink:href="#DejaVuSans-6d"/>
       <use x="222.070312" xlink:href="#DejaVuSans-65"/>
       <use x="283.59375" xlink:href="#DejaVuSans-77"/>
       <use x="365.380859" xlink:href="#DejaVuSans-68"/>
       <use x="428.759766" xlink:href="#DejaVuSans-61"/>
       <use x="490.039062" xlink:href="#DejaVuSans-74"/>
       <use x="529.248047" xlink:href="#DejaVuSans-20"/>
       <use x="561.035156" xlink:href="#DejaVuSans-52"/>
       <use x="626.017578" xlink:href="#DejaVuSans-65"/>
       <use x="687.541016" xlink:href="#DejaVuSans-6c"/>
       <use x="715.324219" xlink:href="#DejaVuSans-61"/>
       <use x="776.603516" xlink:href="#DejaVuSans-74"/>
       <use x="815.8125" xlink:href="#DejaVuSans-65"/>
       <use x="877.335938" xlink:href="#DejaVuSans-64"/>
      </g>
     </g>
    </g>
    <g id="xtick_3">
     <g id="line2d_3">
      <g>
       <use style="fill:#cccccc;stroke:#cccccc;stroke-width:0.8;" x="270.70104" xlink:href="#m9362fb2ecd" y="308.403077"/>
      </g>
     </g>
     <g id="text_3">
      <!-- Synonym -->
      <g style="fill:#777777;" transform="translate(249.676899 322.241671)scale(0.09 -0.09)">
       <defs>
        <path d="M 2059 -325 
Q 1816 -950 1584 -1140 
Q 1353 -1331 966 -1331 
L 506 -1331 
L 506 -850 
L 844 -850 
Q 1081 -850 1212 -737 
Q 1344 -625 1503 -206 
L 1606 56 
L 191 3500 
L 800 3500 
L 1894 763 
L 2988 3500 
L 3597 3500 
L 2059 -325 
z
" id="DejaVuSans-79" transform="scale(0.015625)"/>
       </defs>
       <use xlink:href="#DejaVuSans-53"/>
       <use x="63.476562" xlink:href="#DejaVuSans-79"/>
       <use x="122.65625" xlink:href="#DejaVuSans-6e"/>
       <use x="186.035156" xlink:href="#DejaVuSans-6f"/>
       <use x="247.216797" xlink:href="#DejaVuSans-6e"/>
       <use x="310.595703" xlink:href="#DejaVuSans-79"/>
       <use x="369.775391" xlink:href="#DejaVuSans-6d"/>
      </g>
     </g>
    </g>
    <g id="xtick_4">
     <g id="line2d_4">
      <g>
       <use style="fill:#cccccc;stroke:#cccccc;stroke-width:0.8;" x="355.664093" xlink:href="#m9362fb2ecd" y="308.403077"/>
      </g>
     </g>
     <g id="text_4">
      <!-- Close Synonym -->
      <g style="fill:#777777;" transform="translate(320.950812 322.241671)scale(0.09 -0.09)">
       <defs>
        <path d="M 4122 4306 
L 4122 3641 
Q 3803 3938 3442 4084 
Q 3081 4231 2675 4231 
Q 1875 4231 1450 3742 
Q 1025 3253 1025 2328 
Q 1025 1406 1450 917 
Q 1875 428 2675 428 
Q 3081 428 3442 575 
Q 3803 722 4122 1019 
L 4122 359 
Q 3791 134 3420 21 
Q 3050 -91 2638 -91 
Q 1578 -91 968 557 
Q 359 1206 359 2328 
Q 359 3453 968 4101 
Q 1578 4750 2638 4750 
Q 3056 4750 3426 4639 
Q 3797 4528 4122 4306 
z
" id="DejaVuSans-43" transform="scale(0.015625)"/>
        <path d="M 2834 3397 
L 2834 2853 
Q 2591 2978 2328 3040 
Q 2066 3103 1784 3103 
Q 1356 3103 1142 2972 
Q 928 2841 928 2578 
Q 928 2378 1081 2264 
Q 1234 2150 1697 2047 
L 1894 2003 
Q 2506 1872 2764 1633 
Q 3022 1394 3022 966 
Q 3022 478 2636 193 
Q 2250 -91 1575 -91 
Q 1294 -91 989 -36 
Q 684 19 347 128 
L 347 722 
Q 666 556 975 473 
Q 1284 391 1588 391 
Q 1994 391 2212 530 
Q 2431 669 2431 922 
Q 2431 1156 2273 1281 
Q 2116 1406 1581 1522 
L 1381 1569 
Q 847 1681 609 1914 
Q 372 2147 372 2553 
Q 372 3047 722 3315 
Q 1072 3584 1716 3584 
Q 2034 3584 2315 3537 
Q 2597 3491 2834 3397 
z
" id="DejaVuSans-73" transform="scale(0.015625)"/>
       </defs>
       <use xlink:href="#DejaVuSans-43"/>
       <use x="69.824219" xlink:href="#DejaVuSans-6c"/>
       <use x="97.607422" xlink:href="#DejaVuSans-6f"/>
       <use x="158.789062" xlink:href="#DejaVuSans-73"/>
       <use x="210.888672" xlink:href="#DejaVuSans-65"/>
       <use x="272.412109" xlink:href="#DejaVuSans-20"/>
       <use x="304.199219" xlink:href="#DejaVuSans-53"/>
       <use x="367.675781" xlink:href="#DejaVuSans-79"/>
       <use x="426.855469" xlink:href="#DejaVuSans-6e"/>
       <use x="490.234375" xlink:href="#DejaVuSans-6f"/>
       <use x="551.416016" xlink:href="#DejaVuSans-6e"/>
       <use x="614.794922" xlink:href="#DejaVuSans-79"/>
       <use x="673.974609" xlink:href="#DejaVuSans-6d"/>
      </g>
     </g>
    </g>
    <g id="xtick_5">
     <g id="line2d_5">
      <g>
       <use style="fill:#cccccc;stroke:#cccccc;stroke-width:0.8;" x="440.627147" xlink:href="#m9362fb2ecd" y="308.403077"/>
      </g>
     </g>
     <g id="text_5">
      <!-- Close Match -->
      <g style="fill:#777777;" transform="translate(413.207382 322.241671)scale(0.09 -0.09)">
       <defs>
        <path d="M 628 4666 
L 1569 4666 
L 2759 1491 
L 3956 4666 
L 4897 4666 
L 4897 0 
L 4281 0 
L 4281 4097 
L 3078 897 
L 2444 897 
L 1241 4097 
L 1241 0 
L 628 0 
L 628 4666 
z
" id="DejaVuSans-4d" transform="scale(0.015625)"/>
        <path d="M 3122 3366 
L 3122 2828 
Q 2878 2963 2633 3030 
Q 2388 3097 2138 3097 
Q 1578 3097 1268 2742 
Q 959 2388 959 1747 
Q 959 1106 1268 751 
Q 1578 397 2138 397 
Q 2388 397 2633 464 
Q 2878 531 3122 666 
L 3122 134 
Q 2881 22 2623 -34 
Q 2366 -91 2075 -91 
Q 1284 -91 818 406 
Q 353 903 353 1747 
Q 353 2603 823 3093 
Q 1294 3584 2113 3584 
Q 2378 3584 2631 3529 
Q 2884 3475 3122 3366 
z
" id="DejaVuSans-63" transform="scale(0.015625)"/>
       </defs>
       <use xlink:href="#DejaVuSans-43"/>
       <use x="69.824219" xlink:href="#DejaVuSans-6c"/>
       <use x="97.607422" xlink:href="#DejaVuSans-6f"/>
       <use x="158.789062" xlink:href="#DejaVuSans-73"/>
       <use x="210.888672" xlink:href="#DejaVuSans-65"/>
       <use x="272.412109" xlink:href="#DejaVuSans-20"/>
       <use x="304.199219" xlink:href="#DejaVuSans-4d"/>
       <use x="390.478516" xlink:href="#DejaVuSans-61"/>
       <use x="451.757812" xlink:href="#DejaVuSans-74"/>
       <use x="490.966797" xlink:href="#DejaVuSans-63"/>
       <use x="545.947266" xlink:href="#DejaVuSans-68"/>
      </g>
     </g>
    </g>
    <g id="text_6">
     <!-- Training Score -->
     <g style="fill:#999999;" transform="translate(237.594531 334.951983)scale(0.09 -0.09)">
      <defs>
       <path d="M -19 4666 
L 3928 4666 
L 3928 4134 
L 2272 4134 
L 2272 0 
L 1638 0 
L 1638 4134 
L -19 4134 
L -19 4666 
z
" id="DejaVuSans-54" transform="scale(0.015625)"/>
       <path d="M 603 3500 
L 1178 3500 
L 1178 0 
L 603 0 
L 603 3500 
z
M 603 4863 
L 1178 4863 
L 1178 4134 
L 603 4134 
L 603 4863 
z
" id="DejaVuSans-69" transform="scale(0.015625)"/>
       <path d="M 2906 1791 
Q 2906 2416 2648 2759 
Q 2391 3103 1925 3103 
Q 1463 3103 1205 2759 
Q 947 2416 947 1791 
Q 947 1169 1205 825 
Q 1463 481 1925 481 
Q 2391 481 2648 825 
Q 2906 1169 2906 1791 
z
M 3481 434 
Q 3481 -459 3084 -895 
Q 2688 -1331 1869 -1331 
Q 1566 -1331 1297 -1286 
Q 1028 -1241 775 -1147 
L 775 -588 
Q 1028 -725 1275 -790 
Q 1522 -856 1778 -856 
Q 2344 -856 2625 -561 
Q 2906 -266 2906 331 
L 2906 616 
Q 2728 306 2450 153 
Q 2172 0 1784 0 
Q 1141 0 747 490 
Q 353 981 353 1791 
Q 353 2603 747 3093 
Q 1141 3584 1784 3584 
Q 2172 3584 2450 3431 
Q 2728 3278 2906 2969 
L 2906 3500 
L 3481 3500 
L 3481 434 
z
" id="DejaVuSans-67" transform="scale(0.015625)"/>
      </defs>
      <use xlink:href="#DejaVuSans-54"/>
      <use x="46.333984" xlink:href="#DejaVuSans-72"/>
      <use x="87.447266" xlink:href="#DejaVuSans-61"/>
      <use x="148.726562" xlink:href="#DejaVuSans-69"/>
      <use x="176.509766" xlink:href="#DejaVuSans-6e"/>
      <use x="239.888672" xlink:href="#DejaVuSans-69"/>
      <use x="267.671875" xlink:href="#DejaVuSans-6e"/>
      <use x="331.050781" xlink:href="#DejaVuSans-67"/>
      <use x="394.527344" xlink:href="#DejaVuSans-20"/>
      <use x="426.314453" xlink:href="#DejaVuSans-53"/>
      <use x="489.791016" xlink:href="#DejaVuSans-63"/>
      <use x="544.771484" xlink:href="#DejaVuSans-6f"/>
      <use x="605.953125" xlink:href="#DejaVuSans-72"/>
      <use x="644.816406" xlink:href="#DejaVuSans-65"/>
     </g>
    </g>
   </g>
   <g id="matplotlib.axis_2">
    <g id="ytick_1">
     <g id="line2d_6">
      <defs>
       <path d="M 0 0 
L -3.5 0 
" id="mb5d87bce50" style="stroke:#cccccc;stroke-width:0.8;"/>
      </defs>
      <g>
       <use style="fill:#cccccc;stroke:#cccccc;stroke-width:0.8;" x="45.56" xlink:href="#mb5d87bce50" y="308.403077"/>
      </g>
     </g>
     <g id="text_7">
      <!-- 0.0 -->
      <g style="fill:#777777;" transform="translate(24.247188 311.822374)scale(0.09 -0.09)">
       <defs>
        <path d="M 2034 4250 
Q 1547 4250 1301 3770 
Q 1056 3291 1056 2328 
Q 1056 1369 1301 889 
Q 1547 409 2034 409 
Q 2525 409 2770 889 
Q 3016 1369 3016 2328 
Q 3016 3291 2770 3770 
Q 2525 4250 2034 4250 
z
M 2034 4750 
Q 2819 4750 3233 4129 
Q 3647 3509 3647 2328 
Q 3647 1150 3233 529 
Q 2819 -91 2034 -91 
Q 1250 -91 836 529 
Q 422 1150 422 2328 
Q 422 3509 836 4129 
Q 1250 4750 2034 4750 
z
" id="DejaVuSans-30" transform="scale(0.015625)"/>
        <path d="M 684 794 
L 1344 794 
L 1344 0 
L 684 0 
L 684 794 
z
" id="DejaVuSans-2e" transform="scale(0.015625)"/>
       </defs>
       <use xlink:href="#DejaVuSans-30"/>
       <use x="63.623047" xlink:href="#DejaVuSans-2e"/>
       <use x="95.410156" xlink:href="#DejaVuSans-30"/>
      </g>
     </g>
    </g>
    <g id="ytick_2">
     <g id="line2d_7">
      <g>
       <use style="fill:#cccccc;stroke:#cccccc;stroke-width:0.8;" x="45.56" xlink:href="#mb5d87bce50" y="276.605199"/>
      </g>
     </g>
     <g id="text_8">
      <!-- 0.5 -->
      <g style="fill:#777777;" transform="translate(24.247188 280.024496)scale(0.09 -0.09)">
       <defs>
        <path d="M 691 4666 
L 3169 4666 
L 3169 4134 
L 1269 4134 
L 1269 2991 
Q 1406 3038 1543 3061 
Q 1681 3084 1819 3084 
Q 2600 3084 3056 2656 
Q 3513 2228 3513 1497 
Q 3513 744 3044 326 
Q 2575 -91 1722 -91 
Q 1428 -91 1123 -41 
Q 819 9 494 109 
L 494 744 
Q 775 591 1075 516 
Q 1375 441 1709 441 
Q 2250 441 2565 725 
Q 2881 1009 2881 1497 
Q 2881 1984 2565 2268 
Q 2250 2553 1709 2553 
Q 1456 2553 1204 2497 
Q 953 2441 691 2322 
L 691 4666 
z
" id="DejaVuSans-35" transform="scale(0.015625)"/>
       </defs>
       <use xlink:href="#DejaVuSans-30"/>
       <use x="63.623047" xlink:href="#DejaVuSans-2e"/>
       <use x="95.410156" xlink:href="#DejaVuSans-35"/>
      </g>
     </g>
    </g>
    <g id="ytick_3">
     <g id="line2d_8">
      <g>
       <use style="fill:#cccccc;stroke:#cccccc;stroke-width:0.8;" x="45.56" xlink:href="#mb5d87bce50" y="244.80732"/>
      </g>
     </g>
     <g id="text_9">
      <!-- 1.0 -->
      <g style="fill:#777777;" transform="translate(24.247188 248.226617)scale(0.09 -0.09)">
       <defs>
        <path d="M 794 531 
L 1825 531 
L 1825 4091 
L 703 3866 
L 703 4441 
L 1819 4666 
L 2450 4666 
L 2450 531 
L 3481 531 
L 3481 0 
L 794 0 
L 794 531 
z
" id="DejaVuSans-31" transform="scale(0.015625)"/>
       </defs>
       <use xlink:href="#DejaVuSans-31"/>
       <use x="63.623047" xlink:href="#DejaVuSans-2e"/>
       <use x="95.410156" xlink:href="#DejaVuSans-30"/>
      </g>
     </g>
    </g>
    <g id="ytick_4">
     <g id="line2d_9">
      <g>
       <use style="fill:#cccccc;stroke:#cccccc;stroke-width:0.8;" x="45.56" xlink:href="#mb5d87bce50" y="213.009442"/>
      </g>
     </g>
     <g id="text_10">
      <!-- 1.5 -->
      <g style="fill:#777777;" transform="translate(24.247188 216.428739)scale(0.09 -0.09)">
       <use xlink:href="#DejaVuSans-31"/>
       <use x="63.623047" xlink:href="#DejaVuSans-2e"/>
       <use x="95.410156" xlink:href="#DejaVuSans-35"/>
      </g>
     </g>
    </g>
    <g id="ytick_5">
     <g id="line2d_10">
      <g>
       <use style="fill:#cccccc;stroke:#cccccc;stroke-width:0.8;" x="45.56" xlink:href="#mb5d87bce50" y="181.211564"/>
      </g>
     </g>
     <g id="text_11">
      <!-- 2.0 -->
      <g style="fill:#777777;" transform="translate(24.247188 184.630861)scale(0.09 -0.09)">
       <defs>
        <path d="M 1228 531 
L 3431 531 
L 3431 0 
L 469 0 
L 469 531 
Q 828 903 1448 1529 
Q 2069 2156 2228 2338 
Q 2531 2678 2651 2914 
Q 2772 3150 2772 3378 
Q 2772 3750 2511 3984 
Q 2250 4219 1831 4219 
Q 1534 4219 1204 4116 
Q 875 4013 500 3803 
L 500 4441 
Q 881 4594 1212 4672 
Q 1544 4750 1819 4750 
Q 2544 4750 2975 4387 
Q 3406 4025 3406 3419 
Q 3406 3131 3298 2873 
Q 3191 2616 2906 2266 
Q 2828 2175 2409 1742 
Q 1991 1309 1228 531 
z
" id="DejaVuSans-32" transform="scale(0.015625)"/>
       </defs>
       <use xlink:href="#DejaVuSans-32"/>
       <use x="63.623047" xlink:href="#DejaVuSans-2e"/>
       <use x="95.410156" xlink:href="#DejaVuSans-30"/>
      </g>
     </g>
    </g>
    <g id="ytick_6">
     <g id="line2d_11">
      <g>
       <use style="fill:#cccccc;stroke:#cccccc;stroke-width:0.8;" x="45.56" xlink:href="#mb5d87bce50" y="149.413686"/>
      </g>
     </g>
     <g id="text_12">
      <!-- 2.5 -->
      <g style="fill:#777777;" transform="translate(24.247188 152.832982)scale(0.09 -0.09)">
       <use xlink:href="#DejaVuSans-32"/>
       <use x="63.623047" xlink:href="#DejaVuSans-2e"/>
       <use x="95.410156" xlink:href="#DejaVuSans-35"/>
      </g>
     </g>
    </g>
    <g id="ytick_7">
     <g id="line2d_12">
      <g>
       <use style="fill:#cccccc;stroke:#cccccc;stroke-width:0.8;" x="45.56" xlink:href="#mb5d87bce50" y="117.615807"/>
      </g>
     </g>
     <g id="text_13">
      <!-- 3.0 -->
      <g style="fill:#777777;" transform="translate(24.247188 121.035104)scale(0.09 -0.09)">
       <defs>
        <path d="M 2597 2516 
Q 3050 2419 3304 2112 
Q 3559 1806 3559 1356 
Q 3559 666 3084 287 
Q 2609 -91 1734 -91 
Q 1441 -91 1130 -33 
Q 819 25 488 141 
L 488 750 
Q 750 597 1062 519 
Q 1375 441 1716 441 
Q 2309 441 2620 675 
Q 2931 909 2931 1356 
Q 2931 1769 2642 2001 
Q 2353 2234 1838 2234 
L 1294 2234 
L 1294 2753 
L 1863 2753 
Q 2328 2753 2575 2939 
Q 2822 3125 2822 3475 
Q 2822 3834 2567 4026 
Q 2313 4219 1838 4219 
Q 1578 4219 1281 4162 
Q 984 4106 628 3988 
L 628 4550 
Q 988 4650 1302 4700 
Q 1616 4750 1894 4750 
Q 2613 4750 3031 4423 
Q 3450 4097 3450 3541 
Q 3450 3153 3228 2886 
Q 3006 2619 2597 2516 
z
" id="DejaVuSans-33" transform="scale(0.015625)"/>
       </defs>
       <use xlink:href="#DejaVuSans-33"/>
       <use x="63.623047" xlink:href="#DejaVuSans-2e"/>
       <use x="95.410156" xlink:href="#DejaVuSans-30"/>
      </g>
     </g>
    </g>
    <g id="ytick_8">
     <g id="line2d_13">
      <g>
       <use style="fill:#cccccc;stroke:#cccccc;stroke-width:0.8;" x="45.56" xlink:href="#mb5d87bce50" y="85.817929"/>
      </g>
     </g>
     <g id="text_14">
      <!-- 3.5 -->
      <g style="fill:#777777;" transform="translate(24.247188 89.237226)scale(0.09 -0.09)">
       <use xlink:href="#DejaVuSans-33"/>
       <use x="63.623047" xlink:href="#DejaVuSans-2e"/>
       <use x="95.410156" xlink:href="#DejaVuSans-35"/>
      </g>
     </g>
    </g>
    <g id="ytick_9">
     <g id="line2d_14">
      <g>
       <use style="fill:#cccccc;stroke:#cccccc;stroke-width:0.8;" x="45.56" xlink:href="#mb5d87bce50" y="54.020051"/>
      </g>
     </g>
     <g id="text_15">
      <!-- 4.0 -->
      <g style="fill:#777777;" transform="translate(24.247188 57.439348)scale(0.09 -0.09)">
       <defs>
        <path d="M 2419 4116 
L 825 1625 
L 2419 1625 
L 2419 4116 
z
M 2253 4666 
L 3047 4666 
L 3047 1625 
L 3713 1625 
L 3713 1100 
L 3047 1100 
L 3047 0 
L 2419 0 
L 2419 1100 
L 313 1100 
L 313 1709 
L 2253 4666 
z
" id="DejaVuSans-34" transform="scale(0.015625)"/>
       </defs>
       <use xlink:href="#DejaVuSans-34"/>
       <use x="63.623047" xlink:href="#DejaVuSans-2e"/>
       <use x="95.410156" xlink:href="#DejaVuSans-30"/>
      </g>
     </g>
    </g>
    <g id="text_16">
     <!-- Density -->
     <g style="fill:#999999;" transform="translate(18.375469 184.029273)rotate(-90)scale(0.09 -0.09)">
      <defs>
       <path d="M 1259 4147 
L 1259 519 
L 2022 519 
Q 2988 519 3436 956 
Q 3884 1394 3884 2338 
Q 3884 3275 3436 3711 
Q 2988 4147 2022 4147 
L 1259 4147 
z
M 628 4666 
L 1925 4666 
Q 3281 4666 3915 4102 
Q 4550 3538 4550 2338 
Q 4550 1131 3912 565 
Q 3275 0 1925 0 
L 628 0 
L 628 4666 
z
" id="DejaVuSans-44" transform="scale(0.015625)"/>
      </defs>
      <use xlink:href="#DejaVuSans-44"/>
      <use x="77.001953" xlink:href="#DejaVuSans-65"/>
      <use x="138.525391" xlink:href="#DejaVuSans-6e"/>
      <use x="201.904297" xlink:href="#DejaVuSans-73"/>
      <use x="254.003906" xlink:href="#DejaVuSans-69"/>
      <use x="281.787109" xlink:href="#DejaVuSans-74"/>
      <use x="320.996094" xlink:href="#DejaVuSans-79"/>
     </g>
    </g>
   </g>
   <g id="patch_3">
    <path d="M 45.56 308.403077 
L 45.56 25.44 
" style="fill:none;stroke:#999999;stroke-linecap:square;stroke-linejoin:miter;stroke-width:0.8;"/>
   </g>
   <g id="patch_4">
    <path d="M 45.56 308.403077 
L 493.2 308.403077 
" style="fill:none;stroke:#999999;stroke-linecap:square;stroke-linejoin:miter;stroke-width:0.8;"/>
   </g>
   <g id="text_17">
    <!-- Distribution of Training vs. Re-scaled Similarity (Modeled) Scores -->
    <g transform="translate(45.56 19.44)scale(0.12 -0.12)">
     <defs>
      <path d="M 3116 1747 
Q 3116 2381 2855 2742 
Q 2594 3103 2138 3103 
Q 1681 3103 1420 2742 
Q 1159 2381 1159 1747 
Q 1159 1113 1420 752 
Q 1681 391 2138 391 
Q 2594 391 2855 752 
Q 3116 1113 3116 1747 
z
M 1159 2969 
Q 1341 3281 1617 3432 
Q 1894 3584 2278 3584 
Q 2916 3584 3314 3078 
Q 3713 2572 3713 1747 
Q 3713 922 3314 415 
Q 2916 -91 2278 -91 
Q 1894 -91 1617 61 
Q 1341 213 1159 525 
L 1159 0 
L 581 0 
L 581 4863 
L 1159 4863 
L 1159 2969 
z
" id="DejaVuSans-62" transform="scale(0.015625)"/>
      <path d="M 544 1381 
L 544 3500 
L 1119 3500 
L 1119 1403 
Q 1119 906 1312 657 
Q 1506 409 1894 409 
Q 2359 409 2629 706 
Q 2900 1003 2900 1516 
L 2900 3500 
L 3475 3500 
L 3475 0 
L 2900 0 
L 2900 538 
Q 2691 219 2414 64 
Q 2138 -91 1772 -91 
Q 1169 -91 856 284 
Q 544 659 544 1381 
z
M 1991 3584 
L 1991 3584 
z
" id="DejaVuSans-75" transform="scale(0.015625)"/>
      <path d="M 2375 4863 
L 2375 4384 
L 1825 4384 
Q 1516 4384 1395 4259 
Q 1275 4134 1275 3809 
L 1275 3500 
L 2222 3500 
L 2222 3053 
L 1275 3053 
L 1275 0 
L 697 0 
L 697 3053 
L 147 3053 
L 147 3500 
L 697 3500 
L 697 3744 
Q 697 4328 969 4595 
Q 1241 4863 1831 4863 
L 2375 4863 
z
" id="DejaVuSans-66" transform="scale(0.015625)"/>
      <path d="M 191 3500 
L 800 3500 
L 1894 563 
L 2988 3500 
L 3597 3500 
L 2284 0 
L 1503 0 
L 191 3500 
z
" id="DejaVuSans-76" transform="scale(0.015625)"/>
      <path d="M 313 2009 
L 1997 2009 
L 1997 1497 
L 313 1497 
L 313 2009 
z
" id="DejaVuSans-2d" transform="scale(0.015625)"/>
      <path d="M 1984 4856 
Q 1566 4138 1362 3434 
Q 1159 2731 1159 2009 
Q 1159 1288 1364 580 
Q 1569 -128 1984 -844 
L 1484 -844 
Q 1016 -109 783 600 
Q 550 1309 550 2009 
Q 550 2706 781 3412 
Q 1013 4119 1484 4856 
L 1984 4856 
z
" id="DejaVuSans-28" transform="scale(0.015625)"/>
      <path d="M 513 4856 
L 1013 4856 
Q 1481 4119 1714 3412 
Q 1947 2706 1947 2009 
Q 1947 1309 1714 600 
Q 1481 -109 1013 -844 
L 513 -844 
Q 928 -128 1133 580 
Q 1338 1288 1338 2009 
Q 1338 2731 1133 3434 
Q 928 4138 513 4856 
z
" id="DejaVuSans-29" transform="scale(0.015625)"/>
     </defs>
     <use xlink:href="#DejaVuSans-44"/>
     <use x="77.001953" xlink:href="#DejaVuSans-69"/>
     <use x="104.785156" xlink:href="#DejaVuSans-73"/>
     <use x="156.884766" xlink:href="#DejaVuSans-74"/>
     <use x="196.09375" xlink:href="#DejaVuSans-72"/>
     <use x="237.207031" xlink:href="#DejaVuSans-69"/>
     <use x="264.990234" xlink:href="#DejaVuSans-62"/>
     <use x="328.466797" xlink:href="#DejaVuSans-75"/>
     <use x="391.845703" xlink:href="#DejaVuSans-74"/>
     <use x="431.054688" xlink:href="#DejaVuSans-69"/>
     <use x="458.837891" xlink:href="#DejaVuSans-6f"/>
     <use x="520.019531" xlink:href="#DejaVuSans-6e"/>
     <use x="583.398438" xlink:href="#DejaVuSans-20"/>
     <use x="615.185547" xlink:href="#DejaVuSans-6f"/>
     <use x="676.367188" xlink:href="#DejaVuSans-66"/>
     <use x="711.572266" xlink:href="#DejaVuSans-20"/>
     <use x="743.359375" xlink:href="#DejaVuSans-54"/>
     <use x="789.693359" xlink:href="#DejaVuSans-72"/>
     <use x="830.806641" xlink:href="#DejaVuSans-61"/>
     <use x="892.085938" xlink:href="#DejaVuSans-69"/>
     <use x="919.869141" xlink:href="#DejaVuSans-6e"/>
     <use x="983.248047" xlink:href="#DejaVuSans-69"/>
     <use x="1011.03125" xlink:href="#DejaVuSans-6e"/>
     <use x="1074.410156" xlink:href="#DejaVuSans-67"/>
     <use x="1137.886719" xlink:href="#DejaVuSans-20"/>
     <use x="1169.673828" xlink:href="#DejaVuSans-76"/>
     <use x="1228.853516" xlink:href="#DejaVuSans-73"/>
     <use x="1280.953125" xlink:href="#DejaVuSans-2e"/>
     <use x="1312.740234" xlink:href="#DejaVuSans-20"/>
     <use x="1344.527344" xlink:href="#DejaVuSans-52"/>
     <use x="1409.509766" xlink:href="#DejaVuSans-65"/>
     <use x="1471.033203" xlink:href="#DejaVuSans-2d"/>
     <use x="1507.117188" xlink:href="#DejaVuSans-73"/>
     <use x="1559.216797" xlink:href="#DejaVuSans-63"/>
     <use x="1614.197266" xlink:href="#DejaVuSans-61"/>
     <use x="1675.476562" xlink:href="#DejaVuSans-6c"/>
     <use x="1703.259766" xlink:href="#DejaVuSans-65"/>
     <use x="1764.783203" xlink:href="#DejaVuSans-64"/>
     <use x="1828.259766" xlink:href="#DejaVuSans-20"/>
     <use x="1860.046875" xlink:href="#DejaVuSans-53"/>
     <use x="1923.523438" xlink:href="#DejaVuSans-69"/>
     <use x="1951.306641" xlink:href="#DejaVuSans-6d"/>
     <use x="2048.71875" xlink:href="#DejaVuSans-69"/>
     <use x="2076.501953" xlink:href="#DejaVuSans-6c"/>
     <use x="2104.285156" xlink:href="#DejaVuSans-61"/>
     <use x="2165.564453" xlink:href="#DejaVuSans-72"/>
     <use x="2206.677734" xlink:href="#DejaVuSans-69"/>
     <use x="2234.460938" xlink:href="#DejaVuSans-74"/>
     <use x="2273.669922" xlink:href="#DejaVuSans-79"/>
     <use x="2332.849609" xlink:href="#DejaVuSans-20"/>
     <use x="2364.636719" xlink:href="#DejaVuSans-28"/>
     <use x="2403.650391" xlink:href="#DejaVuSans-4d"/>
     <use x="2489.929688" xlink:href="#DejaVuSans-6f"/>
     <use x="2551.111328" xlink:href="#DejaVuSans-64"/>
     <use x="2614.587891" xlink:href="#DejaVuSans-65"/>
     <use x="2676.111328" xlink:href="#DejaVuSans-6c"/>
     <use x="2703.894531" xlink:href="#DejaVuSans-65"/>
     <use x="2765.417969" xlink:href="#DejaVuSans-64"/>
     <use x="2828.894531" xlink:href="#DejaVuSans-29"/>
     <use x="2867.908203" xlink:href="#DejaVuSans-20"/>
     <use x="2899.695312" xlink:href="#DejaVuSans-53"/>
     <use x="2963.171875" xlink:href="#DejaVuSans-63"/>
     <use x="3018.152344" xlink:href="#DejaVuSans-6f"/>
     <use x="3079.333984" xlink:href="#DejaVuSans-72"/>
     <use x="3118.197266" xlink:href="#DejaVuSans-65"/>
     <use x="3179.720703" xlink:href="#DejaVuSans-73"/>
    </g>
   </g>
  </g>
 </g>
 <defs>
  <clipPath id="pb1d7272eca">
   <rect height="282.963077" width="447.64" x="45.56" y="25.44"/>
  </clipPath>
 </defs>
</svg>
